<?xml version="1.0" encoding="UTF-8"?>
<svg version="1.1" xmlns="http://www.w3.org/2000/svg" width="1067" height="1067">
<path d="M0 0 C0.63349365 0.31066406 1.2669873 0.62132812 1.91967773 0.94140625 C10.89964671 5.62194556 18.18433628 12.44985509 25.27749634 19.5725708 C26.50056301 20.78884081 26.50056301 20.78884081 27.7483381 22.02968192 C30.45887815 24.72763736 33.16229659 27.43261294 35.86572266 30.13769531 C37.81532131 32.08238758 39.76637977 34.02561309 41.71733093 35.96894836 C46.45332785 40.68839796 51.18381829 45.41332908 55.91210724 50.14049992 C59.75766463 53.98510414 63.60480316 57.82811904 67.45304489 61.67003632 C78.38115541 72.58055394 89.30508403 83.49523388 100.22365041 94.41530278 C100.81113484 95.00286712 101.39861926 95.59043146 102.00390625 96.19580078 C102.5921129 96.7840892 103.18031956 97.37237761 103.78635065 97.97849295 C113.3207322 107.51368753 122.86505441 117.0388625 132.4139262 126.559544 C142.23598676 136.35283776 152.05053044 146.15360993 161.85735548 155.96216083 C167.35635951 161.4618273 172.85836759 166.95840686 178.36848831 172.44693756 C183.05877701 177.11896476 187.74200308 181.79793414 192.41639759 186.48586568 C194.79812343 188.87409532 197.18387295 191.25788309 199.57647896 193.63524055 C202.17753966 196.22079896 204.76585323 198.81850555 207.35147095 201.41949463 C208.09924069 202.15697725 208.84701043 202.89445986 209.61743987 203.65429044 C217.45967757 211.5993381 223.16804327 220.64159013 226.6875 231.25 C227.22310547 232.81621094 227.22310547 232.81621094 227.76953125 234.4140625 C231.56049885 250.25546752 228.55217201 266.68414457 220.4375 280.62109375 C211.67516413 293.78415634 198.18238117 302.89277575 182.6875 306.25 C166.05938107 308.65821033 150.50935306 305.83501103 136.6875 296.25 C127.99109878 289.07663685 120.17014445 280.85537774 112.22924805 272.87353516 C110.79771316 271.43843749 109.36593864 270.00357882 107.9339447 268.56893921 C104.86937342 265.49785536 101.80632011 262.42526855 98.74442101 259.35152054 C93.90214527 254.4908545 89.05543917 249.63462232 84.20796204 244.77914429 C70.43100644 230.97810649 56.66004669 217.17109485 42.89331055 203.35986328 C35.27590307 195.7179138 27.65491038 188.07955792 20.03005058 180.44504392 C15.21027876 175.61873243 10.39504689 170.78795069 5.58313119 165.95380712 C2.59350307 162.95245655 -0.40029058 159.95528847 -3.39528465 156.95929337 C-4.78337143 155.56905804 -6.16973472 154.17709945 -7.554245 152.78330231 C-9.44350467 150.88186066 -11.33883297 148.98667994 -13.23579407 147.09292603 C-13.78248711 146.53972518 -14.32918016 145.98652433 -14.89243966 145.41655982 C-19.25322555 141.0844172 -22.93018962 137.8224839 -29.25 137.8125 C-30.06339844 137.79316406 -30.87679687 137.77382812 -31.71484375 137.75390625 C-37.49311409 138.85742555 -41.67127029 143.35965556 -45.69803429 147.39223194 C-46.20738431 147.89957387 -46.71673434 148.40691581 -47.24151921 148.92963174 C-48.94292047 150.62675011 -50.63709751 152.33089773 -52.33139038 154.03511047 C-53.56375393 155.26731791 -54.79655899 156.49908391 -56.02976668 157.73044652 C-59.41433946 161.11248846 -62.79264757 164.50072826 -66.16997528 167.89000309 C-69.814683 171.54540452 -73.46518404 175.19501217 -77.11500549 178.8453064 C-83.43852463 185.17118786 -89.75842463 191.50066645 -96.07593918 197.83254433 C-105.21821031 206.99550186 -114.36648163 216.15244979 -123.51632185 225.30784836 C-138.37201536 240.17279907 -153.22360341 255.04184424 -168.07226562 269.91381836 C-168.96096795 270.803914 -169.84967027 271.69400963 -170.76530297 272.61107787 C-171.65510584 273.50227626 -172.5449087 274.39347466 -173.46167529 275.31167907 C-186.0707465 287.94050879 -198.68078024 300.56837636 -211.29199219 313.19506836 C-212.1790043 314.08317132 -213.06601641 314.97127428 -213.97990768 315.88628945 C-228.77255561 330.696964 -243.56723707 345.50560613 -258.36296046 360.31320828 C-267.48786808 369.44570408 -276.61069258 378.58027196 -285.73082604 387.71753552 C-291.9810856 393.97936985 -298.23304405 400.23950439 -304.48633574 406.49831072 C-308.09365026 410.10895417 -311.70011227 413.720439 -315.30435753 417.3341465 C-318.60600633 420.64444745 -321.90997137 423.95241833 -325.21576031 427.25858464 C-326.40906444 428.45285181 -327.60151746 429.64797018 -328.79301457 430.84404019 C-334.26818104 436.3394065 -339.73061901 441.80039053 -345.65359384 446.82046145 C-348.68190477 449.43006488 -351.49160632 452.26494474 -354.32348633 455.08398438 C-354.97332489 455.72725174 -355.62316345 456.3705191 -356.29269409 457.03327942 C-358.41282613 459.13391743 -360.52911374 461.23836492 -362.64453125 463.34375 C-363.73668221 464.42978767 -363.73668221 464.42978767 -364.85089684 465.5377655 C-368.69578438 469.36190633 -372.5374685 473.18923322 -376.37670898 477.01904297 C-380.33371574 480.96493683 -384.30227162 484.89900379 -388.27345753 488.83061981 C-391.33675545 491.86777357 -394.39113453 494.91377919 -397.44318199 497.9622345 C-398.90262409 499.41681449 -400.36543523 500.86802252 -401.83170509 502.3157196 C-403.88018308 504.33982752 -405.91564088 506.37622445 -407.94848633 508.41601562 C-408.55163162 509.00635086 -409.15477692 509.5966861 -409.77619934 510.20491028 C-413.93864654 514.41931271 -416.9898457 518.58347391 -417.52734375 524.69140625 C-417.43582031 525.39136719 -417.34429687 526.09132813 -417.25 526.8125 C-417.17652344 527.51503906 -417.10304688 528.21757813 -417.02734375 528.94140625 C-414.87378316 535.89634783 -409.01300807 540.82823359 -403.99902344 545.80639648 C-403.16272903 546.64458923 -402.32643463 547.48278198 -401.46479797 548.34637451 C-399.18104706 550.6331854 -396.89290712 552.91548686 -394.60254574 555.1956737 C-392.19666825 557.5927214 -389.79611085 559.99508655 -387.39483643 562.39674377 C-383.35988847 566.43075671 -379.32109737 570.46088878 -375.27978516 574.48852539 C-370.62429606 579.12831743 -365.97402525 583.77328642 -361.32674575 588.42130035 C-356.35904561 593.38967924 -351.38753286 598.35422983 -346.41491413 603.31768537 C-344.9921309 604.7383494 -343.57004838 606.15971158 -342.14812469 607.58123589 C-339.48243347 610.24474624 -336.81346669 612.90493039 -334.14355469 615.56420898 C-333.36508682 616.34313004 -332.58661896 617.12205109 -331.78456116 617.92457581 C-331.04731308 618.6575589 -330.310065 619.39054199 -329.55047607 620.14573669 C-328.92147778 620.77305915 -328.29247948 621.4003816 -327.64442062 622.04671383 C-325.72503929 623.86021739 -323.77261891 625.57646956 -321.76806641 627.29275131 C-316.18461637 632.15543908 -311.00700898 637.42720767 -305.78546143 642.67024231 C-304.63080608 643.8258951 -303.47592613 644.98132351 -302.3208425 646.13654822 C-299.16335481 649.29567389 -296.00898431 652.45789585 -292.85511708 655.62063539 C-289.44732412 659.03688601 -286.03658889 662.45019683 -282.62617493 665.86383057 C-276.72236207 671.77393102 -270.82027545 677.68575074 -264.91925812 683.59864235 C-256.38409547 692.15079952 -247.84520642 700.69922856 -239.30521533 709.24656387 C-225.44427006 723.11944524 -211.58483166 736.99383074 -197.72705078 750.86987305 C-196.89824251 751.69977144 -196.06943425 752.52966983 -195.21551058 753.38471665 C-183.43971386 765.17614168 -171.66540383 776.96905016 -159.89168009 788.76254501 C-159.06165906 789.59395936 -158.23163803 790.4253737 -157.37646484 791.28198242 C-156.54745648 792.11238432 -155.71844811 792.94278621 -154.86431828 793.7983518 C-141.05439243 807.63129115 -127.24062503 821.46038682 -113.42368579 835.28632087 C-104.90078793 843.81507803 -96.38117039 852.34708642 -87.86570993 860.88326951 C-82.03682122 866.72583942 -76.20435617 872.5648228 -70.36902818 878.40096138 C-66.99991731 881.77077795 -63.63249333 885.14223799 -60.26939583 888.51805687 C-57.19343611 891.60559112 -54.11294253 894.68852372 -51.02871355 897.76779696 C-49.91138523 898.88497345 -48.79576591 900.00386222 -47.68199864 901.12458894 C-46.17242493 902.64310976 -44.65685764 904.15538242 -43.13959122 905.66621113 C-42.2979109 906.50919296 -41.45623059 907.35217478 -40.58904481 908.22070152 C-37.06627148 911.36088068 -34.26368429 912.57033691 -29.5625 912.75 C-28.76328125 912.8015625 -27.9640625 912.853125 -27.140625 912.90625 C-20.20033043 911.29579491 -14.59695893 904.8233717 -9.72317505 899.87426758 C-9.11086245 899.26084157 -8.49854986 898.64741556 -7.86768234 898.01540089 C-5.83813575 895.97983214 -3.81584629 893.93720914 -1.79345703 891.89453125 C-0.33115206 890.42510615 1.1316293 888.95615498 2.59484863 887.48764038 C5.73504057 884.3343877 8.87218802 881.17814822 12.00707626 878.0196228 C16.96920435 873.0207842 21.94012781 868.03075462 26.91262817 863.04223633 C41.0477699 848.85888564 55.17106726 834.66377544 69.28564453 820.45996094 C77.08869996 812.60772779 84.89899085 804.76276319 92.71703446 796.92545223 C97.65667364 791.97276641 102.58718183 787.01122358 107.51102042 782.04283142 C110.5817969 778.94851226 113.66098348 775.86266881 116.74255371 772.77910233 C118.16418391 771.35319545 119.58239228 769.92386706 120.99679947 768.49079514 C128.07412295 761.32375426 134.62505185 754.87646237 143.6875 750.25 C144.55274733 749.72661545 145.41799465 749.2032309 146.30946159 748.66398621 C157.75495273 741.85847518 173.17610832 742.36035273 185.6875 745.25 C202.34115061 749.92196373 214.09996752 759.60411253 222.90625 774.28125 C223.96417508 776.23680848 224.85116781 778.19014478 225.6875 780.25 C226.13609375 781.34054687 226.13609375 781.34054687 226.59375 782.453125 C231.11210529 795.75717114 230.29072449 812.48026896 224.6875 825.25 C224.28660156 826.17683594 223.88570312 827.10367188 223.47265625 828.05859375 C216.00318506 843.32229574 200.63453977 855.45730947 188.78881836 867.30981445 C186.89192555 869.21134391 184.99521855 871.11305722 183.09870911 873.01496887 C177.97761917 878.14952849 172.85285563 883.28041052 167.72723842 888.41045022 C164.52093891 891.61952772 161.31537097 894.82933533 158.10992622 898.03926659 C149.21465719 906.94670616 140.31845763 915.85321405 131.4187994 924.7562685 C130.85148477 925.3238027 130.28417013 925.8913369 129.69966415 926.4760691 C129.13110793 927.0448436 128.56255172 927.61361809 127.97676653 928.19962817 C126.82492287 929.35191527 125.67308078 930.50420393 124.52124023 931.65649414 C123.94990459 932.22805122 123.37856895 932.79960829 122.7899201 933.38848528 C113.51889588 942.66346325 104.25465512 951.94518554 94.99328821 961.22980569 C85.45897428 970.78786305 75.91901523 980.34025563 66.37340456 989.88703126 C61.02410992 995.23724019 55.6772296 1000.58981219 50.33659172 1005.94866371 C45.79370466 1010.50699121 41.24565958 1015.06009352 36.69092911 1019.60658822 C34.3709169 1021.92270986 32.05417546 1024.24193971 29.7423439 1026.56623077 C27.22881415 1029.09250798 24.70612193 1031.60927964 22.18101501 1034.12397766 C21.10369666 1035.21338062 21.10369666 1035.21338062 20.00461429 1036.32479173 C11.96938821 1044.28315548 3.2048497 1050.11003022 -7.3125 1054.25 C-8.08980469 1054.559375 -8.86710938 1054.86875 -9.66796875 1055.1875 C-26.46563227 1061.03995228 -44.16090397 1058.11413156 -60.01953125 1051.04296875 C-75.41432269 1043.40063309 -87.5273967 1028.18413339 -99.52023315 1016.18943787 C-101.46036929 1014.25206301 -103.40124009 1012.31542473 -105.34206879 1010.37874371 C-110.09773677 1005.6323393 -114.85075754 1000.88329233 -119.6029365 996.13339496 C-125.30049798 990.43881166 -131.00092045 984.74709543 -136.70135616 979.05538958 C-150.46878132 965.30873603 -164.23108524 951.55696022 -177.99254254 937.80433281 C-184.50472875 931.29636051 -191.01741814 924.78889185 -197.53012215 918.28143773 C-219.83470725 895.99472977 -242.13785289 873.7065822 -264.43722343 851.41465664 C-265.8350803 850.01727453 -267.23293773 848.61989299 -268.63079572 847.22251201 C-269.67056465 846.18309765 -269.67056465 846.18309765 -270.73133901 845.12268502 C-274.24308677 841.61213841 -277.75484169 838.10159895 -281.26660156 834.59106445 C-281.9635036 833.89440257 -282.66040563 833.19774069 -283.37842591 832.47996784 C-305.996958 809.86933675 -328.62325402 787.26649574 -351.254066 764.66815596 C-375.19682574 740.75968816 -399.13229 716.84394019 -423.05955708 692.91996723 C-425.68538883 690.29455302 -428.31125158 687.66916982 -430.9371376 685.04380989 C-431.58367264 684.39739805 -432.23020767 683.75098621 -432.89633467 683.08498613 C-443.29966328 672.6839893 -453.70963956 662.28967058 -464.12203645 651.89775289 C-474.58187509 641.45816129 -485.0343186 631.01121116 -495.47928219 620.55673652 C-501.68385132 614.34694957 -507.89391548 608.14277944 -514.112014 601.94653938 C-518.26609694 597.8059578 -522.41285504 593.65813529 -526.55376826 589.50438316 C-528.91238179 587.13886903 -531.27501619 584.77779827 -533.64453338 582.42317813 C-536.20009774 579.88268954 -538.74301743 577.33016797 -541.28318596 574.77429867 C-542.01643172 574.05127511 -542.74967748 573.32825156 -543.50514281 572.5833182 C-548.41499107 567.60697702 -551.95470448 562.3677809 -555.3125 556.25 C-555.90654 555.20663146 -555.90654 555.20663146 -556.5125808 554.14218476 C-564.01102776 540.72220949 -564.80134061 522.38174854 -560.92480469 507.66552734 C-555.27173813 489.4035077 -542.12845062 476.90922159 -528.95787048 463.76838684 C-527.83364817 462.64300984 -526.70964354 461.51741535 -525.58583552 460.39162463 C-522.52262096 457.32426474 -519.45633117 454.2599958 -516.38948858 451.19626391 C-513.07273375 447.88178257 -509.75887129 444.56441147 -506.44462585 441.24742126 C-499.96219456 434.76055439 -493.47707617 428.27638042 -486.99097507 421.79318313 C-481.71863371 416.5231041 -476.44727402 411.25204503 -471.17660713 405.98029137 C-470.42523807 405.22876907 -469.673869 404.47724677 -468.89973118 403.70295107 C-467.3731646 402.17606476 -465.84660027 400.64917621 -464.32003815 399.12228545 C-450.02203257 384.82143166 -435.72096934 370.52363874 -421.41885079 356.22689845 C-409.15436808 343.96688501 -396.8925121 331.70424958 -384.63256836 319.43969727 C-370.38237059 305.18414525 -356.13054854 290.93022034 -341.87613875 276.67887992 C-340.35561611 275.15867582 -338.83509555 273.63846963 -337.3145771 272.11826134 C-336.5665197 271.37035821 -335.81846229 270.62245508 -335.04773648 269.85188821 C-329.78308294 264.58809714 -324.51958869 259.32314856 -319.25654411 254.05774879 C-312.84188185 247.64027898 -306.42543484 241.22460003 -300.00670903 234.81119446 C-296.73359474 231.54070398 -293.46127716 228.26942699 -290.19113159 224.99596786 C-287.19492452 221.99677078 -284.19639984 218.99991089 -281.19604725 216.00486108 C-280.11388559 214.92381205 -279.03255636 213.84192892 -277.95216881 212.75910685 C-272.83995003 207.63625708 -267.69141824 202.62166782 -262.19533318 197.90827388 C-258.72814302 194.85460406 -255.50198633 191.55886722 -252.24931335 188.28015137 C-251.47844778 187.50731796 -250.70758221 186.73448455 -249.91335708 185.93823195 C-247.34959316 183.36679371 -244.78944927 180.79178186 -242.22924805 178.21679688 C-240.38411739 176.36483063 -238.53873316 174.513117 -236.69311523 172.66163635 C-232.72763494 168.68308034 -228.76378924 164.70290202 -224.80084801 160.72181702 C-218.52991516 154.42256612 -212.25311418 148.12917998 -205.97529602 141.83679199 C-203.82321702 139.6795896 -201.67116341 137.52236188 -199.51910877 135.36513519 C-198.98140296 134.82614335 -198.44369715 134.2871515 -197.88969722 133.73182657 C-191.78023907 127.6076593 -185.67167147 121.48260425 -179.5637207 115.35693359 C-178.72699556 114.51778633 -178.72699556 114.51778633 -177.87336687 113.6616866 C-168.83357802 104.5953605 -159.79942165 95.52343901 -150.76687457 86.4498989 C-141.47506906 77.11628584 -132.17555676 67.79039913 -122.86933929 58.47115564 C-117.1392756 52.73252163 -111.41547651 46.98778232 -105.69971488 41.2349025 C-101.31486205 36.82279079 -96.91949151 32.42129564 -92.52021027 28.02357292 C-90.72329002 26.22396342 -88.92978624 24.42093478 -87.14004707 22.61418343 C-69.7982904 5.11481504 -69.7982904 5.11481504 -60.3125 0.25 C-59.55111064 -0.15440056 -58.78972128 -0.55880112 -58.00525951 -0.97545624 C-40.0095693 -10.169963 -17.74273422 -8.70563484 0 0 Z " fill="#1388FE" transform="translate(562.3125,6.75)"/>
<path d="M0 0 C4.67030856 4.29323915 9.12240355 8.81052938 13.59353614 13.30893302 C15.10182164 14.81178987 16.61095488 16.31379631 18.12086463 17.81502128 C22.19596134 21.87197198 26.25841097 25.94136547 30.31807709 30.01375008 C34.58001185 34.28585587 38.85174769 38.54814381 43.12190223 42.81203055 C50.28827475 49.97113941 57.44620297 57.13860988 64.59939551 64.31088614 C72.85635251 72.58961754 81.12763138 80.85382979 89.4064799 89.1106649 C96.53005136 96.21605589 103.64576253 103.32924796 110.75502056 110.44896024 C114.99420232 114.69436124 119.23600027 118.93705346 123.48491836 123.17271209 C127.47905736 127.1552545 131.46320448 131.14753556 135.44001174 135.1473825 C136.89661323 136.60925031 138.35658719 138.06776713 139.82024741 139.52256751 C154.0204646 153.64476281 154.0204646 153.64476281 158.30325294 162.53622794 C158.89985205 163.76193614 158.89985205 163.76193614 159.50850368 165.01240611 C167.13056191 181.14529504 167.24592159 199.3013422 161.42434669 216.06747794 C160.48651928 218.29628951 159.44790266 220.40655651 158.30325294 222.53622794 C157.88301856 223.33415763 157.46278419 224.13208732 157.02981544 224.95419669 C150.12984827 237.24833708 139.11608498 246.88081148 129.23733497 256.77914786 C127.83497399 258.18778726 126.43279819 259.59661104 125.030792 261.00560355 C120.46108891 265.59616802 115.88621383 270.18156033 111.31106544 274.76669669 C109.72850251 276.35331249 108.14597172 277.93996035 106.56347251 279.5266397 C99.13205768 286.97705886 91.69826635 294.42509669 84.26152503 301.87019914 C75.70292192 310.43858719 67.152677 319.01520463 58.60937583 327.59884924 C51.98428376 334.2541429 45.35149426 340.90170224 38.7129389 347.54356629 C34.75682805 351.50202086 30.80405171 355.46367157 26.85940909 359.43355727 C23.14991415 363.16641188 19.43091497 366.88953344 15.70460486 370.60560012 C14.34470941 371.96500221 12.98818539 373.32778734 11.63544822 374.69431281 C-3.09525392 389.566642 -18.68949678 400.38553965 -40.43112206 400.56747794 C-57.38577675 399.87545122 -71.82720827 393.54512596 -83.51315331 381.12997794 C-94.62817621 367.92716004 -98.46687219 352.47898069 -97.69674706 335.53622794 C-95.93470233 318.51991017 -86.53614584 305.87650737 -74.69992089 294.2781713 C-73.69830203 293.28560447 -72.69739113 292.2923228 -71.69712853 291.2983892 C-69.55696501 289.17437672 -67.41232589 287.05503088 -65.26407838 284.93919539 C-61.86365364 281.58923834 -58.47607771 278.22648249 -55.0904696 274.86156058 C-46.07477229 265.90480655 -37.04294705 256.96437609 -28.00257772 248.03252822 C-22.05117487 242.15245347 -16.10704496 236.26523297 -10.17635196 230.36426431 C-6.81562606 227.02154167 -3.44380878 223.69056852 -0.06309307 220.36807024 C2.03951169 218.29649277 4.13150808 216.21444861 6.22074294 214.1293962 C7.64658622 212.71260916 9.0848918 211.3083983 10.52358985 209.90466666 C15.88649304 204.52582081 19.91045476 200.01754797 20.47512794 192.13779044 C17.81119387 179.65676603 3.00813229 169.09383522 -5.73190331 160.36825919 C-7.17975707 158.91973021 -8.62746248 157.47105295 -10.0750277 156.02223563 C-13.09322869 153.00256892 -16.11320884 149.98469628 -19.13449121 146.96811271 C-22.98978607 143.11852471 -26.8405592 139.26444973 -30.69001126 135.40902019 C-33.67289497 132.42250913 -36.65817335 129.43840087 -39.64416337 126.45499587 C-41.06454124 125.03528072 -42.48418875 123.61483445 -43.90306306 122.19361663 C-50.66368837 115.42427101 -57.39839399 108.73081576 -64.69674706 102.53622794 C-80.67391951 87.74366049 -97.91012145 71.62454867 -98.93502831 48.38388419 C-99.37330939 29.52595265 -94.83519767 14.07911088 -81.52877831 0.11435294 C-58.34738004 -20.98871308 -23.49846305 -20.27196295 0 0 Z " fill="#F64654" transform="translate(899.6967470645905,341.46377205848694)"/>
<path d="M0 0 C11.47820513 9.63095616 21.57295596 19.80617279 29.83984375 32.3828125 C30.34257813 33.12789063 30.8453125 33.87296875 31.36328125 34.640625 C49.14170765 62.3900207 53.39125284 97.47710678 46.65234375 129.2578125 C39.59948322 160.19906314 20.93467224 188.99910219 -5.9375 206.40234375 C-7.00097656 207.05589844 -8.06445312 207.70945312 -9.16015625 208.3828125 C-10.23394531 209.06730469 -11.30773437 209.75179687 -12.4140625 210.45703125 C-39.42052181 226.88622145 -74.6705963 232.69753751 -105.56640625 225.41015625 C-106.75234375 225.07113281 -107.93828125 224.73210937 -109.16015625 224.3828125 C-109.84722656 224.19477051 -110.53429687 224.00672852 -111.2421875 223.81298828 C-143.48902398 214.81337162 -171.66445646 193.26032405 -188.1640625 164.06640625 C-204.60699353 134.06293923 -209.39381352 99.0032728 -199.90625 65.9140625 C-194.51305248 48.14845777 -186.02231197 31.23733707 -173.26171875 17.64453125 C-171.54656896 15.79867302 -170.01206821 13.93332611 -168.47265625 11.9453125 C-127.84247895 -35.62445431 -47.24695874 -37.20130908 0 0 Z " fill="#F64654" transform="translate(612.16015625,433.6171875)"/>
<path d="M0 0 C1.87283555 1.2869483 3.77676962 2.42186889 5.74156857 3.56074333 C10.58725414 6.58064982 14.43376709 10.37089772 18.44385433 14.40550041 C19.64306011 15.59441132 19.64306011 15.59441132 20.86649227 16.80734062 C23.49169017 19.41432625 26.10574371 22.03215473 28.71900082 24.65110588 C30.55131367 26.47885362 32.38399682 28.30623021 34.21703243 30.1332531 C38.05241221 33.95971211 41.88219229 37.79165647 45.70801449 41.62766838 C50.10884588 46.0399628 54.52227445 50.43935506 58.94222885 54.83248627 C63.21845961 59.08374995 67.48330127 63.34624776 71.74385548 67.61322975 C73.54636288 69.41588981 75.35194839 71.21547777 77.16074467 73.01182747 C79.69717033 75.53325279 82.22034892 78.06726809 84.74072933 80.60471916 C85.47910534 81.3334272 86.21748135 82.06213524 86.97823238 82.81292534 C94.80868049 90.75394453 100.51176044 99.79580285 104.02759457 110.39329338 C104.56320004 111.95950432 104.56320004 111.95950432 105.10962582 113.55735588 C108.90059341 129.3987609 105.89226658 145.82743795 97.77759457 159.76438713 C89.0152587 172.92744972 75.52247574 182.03606913 60.02759457 185.39329338 C43.39947564 187.80150371 27.84944763 184.97830441 14.02759457 175.39329338 C5.33119334 168.21993023 -2.48976099 159.99867112 -10.43065739 152.01682854 C-11.86219227 150.58173087 -13.29396679 149.1468722 -14.72596073 147.71223259 C-17.79053201 144.64114874 -20.85358533 141.56856193 -23.91548443 138.49481392 C-28.75776016 133.63414789 -33.60446626 128.77791571 -38.4519434 123.92243767 C-52.228899 110.12139987 -65.99985874 96.31438823 -79.76659489 82.50315666 C-87.38400236 74.86120718 -95.00499505 67.2228513 -102.62985486 59.5883373 C-107.44962667 54.76202581 -112.26485854 49.93124407 -117.07677424 45.0971005 C-120.06640237 42.09574993 -123.06019601 39.09858185 -126.05519009 36.10258675 C-127.44327687 34.71235142 -128.82964016 33.32039283 -130.21415043 31.92659569 C-132.10341011 30.02515404 -133.99873841 28.12997332 -135.8956995 26.23621941 C-136.71573907 25.40641813 -136.71573907 25.40641813 -137.5523451 24.5598532 C-141.37076679 20.76651232 -144.60201275 17.61635417 -150.08568668 17.10032463 C-151.66929996 17.15253166 -151.66929996 17.15253166 -153.28490543 17.20579338 C-154.35353825 17.23286369 -155.42217106 17.25993401 -156.52318668 17.28782463 C-157.33142887 17.32262932 -158.13967106 17.35743401 -158.97240543 17.39329338 C-139.3514604 -2.36931913 -118.09062846 -18.03455144 -90.97240543 -25.60670662 C-90.07521793 -25.87225349 -89.17803043 -26.13780037 -88.25365543 -26.41139412 C-56.8630026 -34.25905733 -24.72555727 -17.71090001 0 0 Z " fill="#37A5F4" transform="translate(684.9724054336548,127.6067066192627)"/>
</svg>
