<?xml version="1.0" encoding="UTF-8"?>
<svg version="1.1" xmlns="http://www.w3.org/2000/svg" width="547" height="456">
<path d="M0 0 C1.28269775 0.25740967 1.28269775 0.25740967 2.59130859 0.52001953 C15.51443001 3.16419084 27.81475088 6.95883382 40 12 C40.71075684 12.29213379 41.42151367 12.58426758 42.15380859 12.88525391 C60.1304024 20.42651204 76.00214056 31.67665596 91 44 C91.95003906 44.72058594 92.90007812 45.44117188 93.87890625 46.18359375 C94.92884766 47.08271484 94.92884766 47.08271484 96 48 C96 48.66 96 49.32 96 50 C96.66 50 97.32 50 98 50 C98 50.66 98 51.32 98 52 C98.8353125 52.3403125 98.8353125 52.3403125 99.6875 52.6875 C102.66159588 54.37550036 104.72008865 56.46676517 107 59 C107 59.66 107 60.32 107 61 C107.66 61 108.32 61 109 61 C109 61.66 109 62.32 109 63 C109.66 63 110.32 63 111 63 C112.75402066 65.00372499 114.38521225 67.01273554 116 69.125 C116.48694336 69.75446533 116.97388672 70.38393066 117.47558594 71.0324707 C122.49467868 77.56460063 127.31432466 84.22552962 132 91 C132.92232422 92.31484375 132.92232422 92.31484375 133.86328125 93.65625 C154.34514815 124.16716897 162.47285417 162.00117031 162.3125 198.25 C162.30976578 199.53725983 162.30976578 199.53725983 162.30697632 200.8505249 C162.26184805 213.47850088 161.74236226 225.63507726 159 238 C158.83371094 238.8245166 158.66742188 239.6490332 158.49609375 240.49853516 C152.92127387 268.14035041 141.47803054 294.76324518 124 317 C123.24332031 317.96550781 122.48664063 318.93101562 121.70703125 319.92578125 C120.37917648 321.59708844 119.04233999 323.26135441 117.69140625 324.9140625 C116.544922 326.32797148 115.44897484 327.78409937 114.40234375 329.2734375 C113.70818359 330.12808594 113.70818359 330.12808594 113 331 C112.34 331 111.68 331 111 331 C110.73123047 331.59329102 110.46246094 332.18658203 110.18554688 332.79785156 C108.99709268 335.00540033 107.79257611 336.46542882 106.03125 338.234375 C105.46019531 338.80800781 104.88914062 339.38164062 104.30078125 339.97265625 C103.70652344 340.55917969 103.11226563 341.14570313 102.5 341.75 C101.90574219 342.35199219 101.31148438 342.95398438 100.69921875 343.57421875 C99.84263672 344.42693359 99.84263672 344.42693359 98.96875 345.296875 C98.44732422 345.81604492 97.92589844 346.33521484 97.38867188 346.87011719 C96 348 96 348 94 348 C94 348.66 94 349.32 94 350 C93.34 350 92.68 350 92 350 C92 350.66 92 351.32 92 352 C90.1015625 353.7265625 90.1015625 353.7265625 87.625 355.625 C86.81289063 356.25664062 86.00078125 356.88828125 85.1640625 357.5390625 C83 359 83 359 81 359 C81 359.66 81 360.32 81 361 C77.20130892 363.94982157 73.06168905 366.42880872 69 369 C68.14946045 369.54865723 68.14946045 369.54865723 67.28173828 370.10839844 C51.39150134 380.3219353 34.11650382 387.72778188 16 393 C15.0109668 393.29148926 15.0109668 393.29148926 14.00195312 393.58886719 C-35.27487181 407.69257383 -92.29393022 400.56545131 -137 376 C-142.19520376 372.92389251 -147.23947967 369.62360889 -152.21728516 366.20849609 C-153.40188442 365.40546044 -154.59971802 364.62159686 -155.81005859 363.85791016 C-157.23862084 362.95383613 -158.62458763 361.98304667 -160 361 C-160 360.34 -160 359.68 -160 359 C-161.051875 358.6596875 -161.051875 358.6596875 -162.125 358.3125 C-165.74128535 356.66158712 -168.08769976 354.7091165 -171 352 C-171 351.34 -171 350.68 -171 350 C-171.58426758 349.74025391 -172.16853516 349.48050781 -172.77050781 349.21289062 C-175.15561164 347.915344 -176.75190637 346.50658878 -178.671875 344.59375 C-179.33574219 343.93246094 -179.99960938 343.27117187 -180.68359375 342.58984375 C-181.70646484 341.55537109 -181.70646484 341.55537109 -182.75 340.5 C-183.79607422 339.46552734 -183.79607422 339.46552734 -184.86328125 338.41015625 C-185.52199219 337.74886719 -186.18070313 337.08757812 -186.859375 336.40625 C-187.46233398 335.80103516 -188.06529297 335.19582031 -188.68652344 334.57226562 C-190 333 -190 333 -190 331 C-190.66 331 -191.32 331 -192 331 C-193.75413834 328.99614057 -195.3859263 326.98803469 -197 324.875 C-197.49129395 324.2353833 -197.98258789 323.5957666 -198.48876953 322.93676758 C-199.50814489 321.60299471 -200.5238931 320.26644247 -201.53613281 318.92724609 C-202.8373628 317.21411909 -204.16112092 315.52195855 -205.4921875 313.83203125 C-211.10269718 306.42799798 -215.55588607 298.59729973 -219.875 290.375 C-220.69653564 288.81978638 -220.69653564 288.81978638 -221.53466797 287.2331543 C-224.64671584 281.16701346 -227.10066355 275.160188 -229.13745117 268.6550293 C-230.00838732 265.81723283 -230.00838732 265.81723283 -231.55859375 262.49609375 C-233.62585567 257.48200319 -234.81174476 252.33102654 -236.0625 247.0625 C-236.44631836 245.52239258 -236.44631836 245.52239258 -236.83789062 243.95117188 C-240.46237419 228.84760412 -241.41144463 214.02477956 -241.375 198.5625 C-241.37445618 197.68870697 -241.37391235 196.81491394 -241.37335205 195.91464233 C-241.27608441 161.77798174 -233.18408846 128.64089391 -216 99 C-215.3503125 97.87851563 -214.700625 96.75703125 -214.03125 95.6015625 C-209.49188793 88.01794571 -204.41030558 80.98103946 -199 74 C-197.98292969 72.63875 -197.98292969 72.63875 -196.9453125 71.25 C-196.32398438 70.425 -195.70265625 69.6 -195.0625 68.75 C-194.51722656 68.02296875 -193.97195312 67.2959375 -193.41015625 66.546875 C-192.94480469 66.03640625 -192.47945312 65.5259375 -192 65 C-191.34 65 -190.68 65 -190 65 C-190 64.34 -190 63.68 -190 63 C-189.34 63 -188.68 63 -188 63 C-188 62.34 -188 61.68 -188 61 C-187.34 61 -186.68 61 -186 61 C-185.773125 60.443125 -185.54625 59.88625 -185.3125 59.3125 C-183.62449964 56.33840412 -181.53323483 54.27991135 -179 52 C-178.34 52 -177.68 52 -177 52 C-177 51.34 -177 50.68 -177 50 C-176.34 50 -175.68 50 -175 50 C-175 49.34 -175 48.68 -175 48 C-174.34 48 -173.68 48 -173 48 C-173 47.34 -173 46.68 -173 46 C-166.9049467 40.35883364 -159.87718729 35.63063944 -153 31 C-152.40864258 30.59378418 -151.81728516 30.18756836 -151.20800781 29.76904297 C-128.24560158 14.04491151 -102.46193641 3.74507093 -75 -1 C-73.7315625 -1.22429688 -72.463125 -1.44859375 -71.15625 -1.6796875 C-48.33507148 -5.14665909 -22.57673928 -4.72364927 0 0 Z " fill="#363636" transform="translate(313,30)"/>
<path d="M0 0 C1.92102539 -0.0299707 1.92102539 -0.0299707 3.88085938 -0.06054688 C21.33547467 -0.05165507 34.04308612 6.80406823 46.37109375 18.7265625 C63.70030445 36.18152945 67.0625 59.81660957 67.0625 83.4375 C30.1025 83.4375 -6.8575 83.4375 -44.9375 83.4375 C-42.07656882 106.55780811 -42.07656882 106.55780811 -28.6875 124.3984375 C-16.56933057 133.60358543 -2.74831903 135.30118989 12.0625 133.4375 C21.69851424 131.31783695 31.0300096 125.63266682 36.4609375 117.2890625 C38.18572586 113.99850883 39.15436198 111.07005209 40.0625 107.4375 C47.9825 107.4375 55.9025 107.4375 64.0625 107.4375 C62.25321544 121.91177648 55.93069209 133.1101911 44.6796875 142.58984375 C26.42393588 155.47785945 4.75300654 157.83616421 -17.04296875 155.01171875 C-33.17707156 151.74481346 -47.77649924 142.19313447 -56.86523438 128.50830078 C-70.55119828 106.86378683 -74.36023951 79.57618643 -69.0390625 54.609375 C-66.16247057 42.87199989 -60.52827077 32.78119103 -52.9375 23.4375 C-52.32519531 22.61636719 -51.71289062 21.79523438 -51.08203125 20.94921875 C-48.60060934 18.04292679 -45.84308543 15.73473547 -42.8125 13.4375 C-41.95035889 12.78285767 -41.95035889 12.78285767 -41.07080078 12.11499023 C-28.33105585 2.64951188 -15.73259608 -0.08683319 0 0 Z " fill="#FAFAFA" transform="translate(196.9375,150.5625)"/>
<path d="M0 0 C27.78908285 -3.81342094 27.78908285 -3.81342094 36.02050781 2.21044922 C40.99151484 7.84015859 44.27803593 14.27778987 47.47045898 21.03149414 C49.38659213 24.75029109 51.75681053 27.82641437 54.40234375 31.04956055 C56.5337611 33.65162247 58.34559927 36.37337951 60.1875 39.1875 C60.82042969 40.15042969 61.45335937 41.11335938 62.10546875 42.10546875 C62.73066406 43.06066406 63.35585938 44.01585937 64 45 C64.73863281 46.06863281 65.47726562 47.13726562 66.23828125 48.23828125 C68 51 68 51 68 53 C68.99 53 69.98 53 71 53 C71.22945313 52.31421875 71.45890625 51.6284375 71.6953125 50.921875 C73.30095695 47.3260006 75.50855132 44.36683646 77.875 41.25 C78.87246939 39.91378622 79.86851067 38.57650543 80.86328125 37.23828125 C81.37971191 36.54428223 81.89614258 35.8502832 82.42822266 35.13525391 C85.02575656 31.60651337 87.54447178 28.02320157 90.0625 24.4375 C91.06115382 23.01819814 92.05985144 21.5989271 93.05859375 20.1796875 C93.78925049 19.14086426 93.78925049 19.14086426 94.53466797 18.08105469 C96.89013115 14.73584173 99.25417535 11.39684035 101.625 8.0625 C102.03886963 7.47718506 102.45273926 6.89187012 102.87915039 6.28881836 C104.48420171 4.03512496 106.0394104 1.9605896 108 0 C110.98095703 -0.22705078 110.98095703 -0.22705078 114.7578125 -0.1953125 C115.75238968 -0.19106766 115.75238968 -0.19106766 116.76705933 -0.18673706 C118.88655583 -0.17553435 121.00563104 -0.15043051 123.125 -0.125 C124.56119182 -0.11497028 125.99739025 -0.10584441 127.43359375 -0.09765625 C130.95586628 -0.075595 134.47789203 -0.04106494 138 0 C136.06713001 4.06841519 133.47477318 7.49734756 130.75 11.0625 C129.66325463 12.49678407 128.57735253 13.93170739 127.4921875 15.3671875 C126.92209961 16.1209668 126.35201172 16.87474609 125.76464844 17.65136719 C122.7684383 21.63912889 119.82445703 25.66510993 116.875 29.6875 C112.95465834 35.02737658 109.00226684 40.33166553 104.9375 45.5625 C103.28665607 47.70473225 101.63976823 49.84933165 100 52 C99.43764648 52.73734375 98.87529297 53.4746875 98.29589844 54.234375 C96.45328428 56.66635111 94.63102051 59.11247069 92.8125 61.5625 C92.22267334 62.33730713 91.63284668 63.11211426 91.02514648 63.91040039 C90.48704346 64.64250732 89.94894043 65.37461426 89.39453125 66.12890625 C88.90831299 66.77931885 88.42209473 67.42973145 87.92114258 68.09985352 C86.82288029 69.94988862 86.82288029 69.94988862 87.17919922 71.99511719 C88.11210128 74.27381788 89.25130348 75.98532613 90.73828125 77.94921875 C91.30490479 78.705979 91.87152832 79.46273926 92.45532227 80.24243164 C93.37462524 81.45274048 93.37462524 81.45274048 94.3125 82.6875 C95.60037803 84.40779224 96.886811 86.12916715 98.171875 87.8515625 C98.81833984 88.7168457 99.46480469 89.58212891 100.13085938 90.47363281 C102.83478592 94.12831305 105.455349 97.83843831 108.0625 101.5625 C115.65006723 112.37881925 123.40631323 123.07239563 131.1875 133.75 C132.45843939 135.49992298 133.72926396 137.24992935 135 139 C135.43006348 139.58861816 135.86012695 140.17723633 136.30322266 140.78369141 C137.70675724 142.70665584 139.10381746 144.63419307 140.5 146.5625 C140.94625732 147.17125977 141.39251465 147.78001953 141.85229492 148.40722656 C145 152.77253949 145 152.77253949 145 155 C140.60805472 155.2992677 136.2216503 155.51546389 131.82250977 155.65917969 C130.33089824 155.7191213 128.83998006 155.80072554 127.35083008 155.90527344 C115.06848411 156.74523273 115.06848411 156.74523273 110.20043945 152.63793945 C107.85150134 149.53566707 105.91057875 146.38758665 104 143 C102.81698662 141.24466266 101.62115905 139.4978645 100.41015625 137.76171875 C99.29067855 136.07268795 98.17482359 134.38125075 97.0625 132.6875 C95.85027736 130.85545754 94.63803768 129.02342635 93.42578125 127.19140625 C92.8426416 126.30727051 92.25950195 125.42313477 91.65869141 124.51220703 C89.36746834 121.04198546 87.05954209 117.58304352 84.75 114.125 C83.96603363 112.94929356 83.18217851 111.77351293 82.3984375 110.59765625 C82.01268555 110.01902832 81.62693359 109.44040039 81.22949219 108.84423828 C75.61474609 100.42211914 75.61474609 100.42211914 70 92 C62.65717761 101.08957309 56.12497266 110.70894082 49.6875 120.44824219 C46.4134067 125.39917147 43.13179739 130.34507609 39.84539795 135.2878418 C38.64323981 137.09754223 37.44390538 138.90909224 36.24462891 140.72070312 C35.48875233 141.85816966 34.732736 142.99554333 33.9765625 144.1328125 C33.30705566 145.14230957 32.63754883 146.15180664 31.94775391 147.19189453 C31.30499512 148.11856934 30.66223633 149.04524414 30 150 C29.1020874 151.40390991 29.1020874 151.40390991 28.18603516 152.83618164 C26 155 26 155 22.79199219 155.56762695 C21.55610352 155.54144287 20.32021484 155.51525879 19.046875 155.48828125 C18.05654266 155.47766914 18.05654266 155.47766914 17.04620361 155.46684265 C14.94629508 155.43894727 12.84909621 155.37623287 10.75 155.3125 C9.3229553 155.28741017 7.89586862 155.26459817 6.46875 155.24414062 C2.97829252 155.1891412 -0.51058911 155.10290912 -4 155 C-2.58717775 151.32590153 -1.05808846 148.46482427 1.3125 145.3125 C2.02277344 144.35601562 2.73304688 143.39953125 3.46484375 142.4140625 C3.86429199 141.87813477 4.26374023 141.34220703 4.67529297 140.79003906 C7.27362244 137.27899009 9.82040287 133.73042085 12.375 130.1875 C12.93670898 129.40938965 13.49841797 128.6312793 14.07714844 127.82958984 C21.14906742 118.02969749 28.16461279 108.19189959 35.125 98.3125 C47.75689188 80.38517762 47.75689188 80.38517762 50.77734375 77.01953125 C52.2121528 75.0536424 52.2121528 75.0536424 51.9609375 72.6171875 C50.71600672 69.22652236 48.89352743 66.93740152 46.625 64.125 C45.70802824 62.97002416 44.79272513 61.813722 43.87890625 60.65625 C43.40340332 60.05683594 42.92790039 59.45742187 42.43798828 58.83984375 C40.07686992 55.81889502 37.81938951 52.72417557 35.5625 49.625 C35.10423828 48.997146 34.64597656 48.36929199 34.17382812 47.72241211 C33.24289189 46.44660631 32.31239043 45.17048315 31.38232422 43.89404297 C29.58543634 41.43197018 27.77920409 38.97683253 25.97314453 36.52148438 C21.35513389 30.23925041 16.76292858 23.93830596 12.1875 17.625 C11.66043457 16.90014404 11.13336914 16.17528809 10.59033203 15.4284668 C6.93081567 10.36877259 3.43024389 5.21764188 0 0 Z " fill="#FAFAFA" transform="translate(275,151)"/>
<path d="M0 0 C1.41703593 1.03405325 2.81432903 2.09586892 4.1875 3.1875 C4.80238281 3.66574219 5.41726562 4.14398438 6.05078125 4.63671875 C15.29561555 12.77463275 18.10712108 23.30333185 19.1875 35.1875 C-9.1925 35.1875 -37.5725 35.1875 -66.8125 35.1875 C-65.40750723 21.13757234 -61.30997488 10.45147046 -50.390625 1.1171875 C-35.31811028 -10.07017591 -15.82858084 -9.92279102 0 0 Z " fill="#373737" transform="translate(218.8125,178.8125)"/>
<path d="M0 0 C0.66 0.33 1.32 0.66 2 1 C2.625 3.5625 2.625 3.5625 3 6 C-1.50802601 4.74194623 -4.4912812 3.09592835 -8 0 C-4.67803635 -1.10732122 -3.31749961 -0.85064093 0 0 Z " fill="#555354" transform="translate(179,402)"/>
<path d="M0 0 C0 3.73675706 -1.26051811 5.72174568 -3 9 C-3.391875 9.78375 -3.78375 10.5675 -4.1875 11.375 C-4.455625 11.91125 -4.72375 12.4475 -5 13 C-5.66 13 -6.32 13 -7 13 C-6.36610765 9.50155614 -4.94822306 7.15913124 -2.9375 4.25 C-2.38964844 3.45078125 -1.84179688 2.6515625 -1.27734375 1.828125 C-0.85582031 1.22484375 -0.43429688 0.6215625 0 0 Z " fill="#7E7D7E" transform="translate(106,115)"/>
<path d="M0 0 C0.66 0.33 1.32 0.66 2 1 C-1.08632611 4.2626876 -3.93483504 7.02235218 -8 9 C-8.66 8.67 -9.32 8.34 -10 8 C-6.7 5.36 -3.4 2.72 0 0 Z " fill="#8E8E8E" transform="translate(158,62)"/>
<path d="M0 0 C0.66 0 1.32 0 2 0 C1.34 1.32 0.68 2.64 0 4 C-0.66 4 -1.32 4 -2 4 C-2.268125 4.61875 -2.53625 5.2375 -2.8125 5.875 C-4 8 -4 8 -7 10 C-5.32598022 6.04322598 -2.86850715 3.15535787 0 0 Z " fill="#595959" transform="translate(166,182)"/>
<path d="M0 0 C0.66 0.33 1.32 0.66 2 1 C2 1.66 2 2.32 2 3 C3.32 3.99 4.64 4.98 6 6 C2.37 5.34 -1.26 4.68 -5 4 C-3.68 3.34 -2.36 2.68 -1 2 C-0.67 1.34 -0.34 0.68 0 0 Z " fill="#777676" transform="translate(222,419)"/>
<path d="M0 0 C0.33 0.99 0.66 1.98 1 3 C0.00390625 4.82421875 0.00390625 4.82421875 -1.4375 6.6875 C-1.91058594 7.31011719 -2.38367188 7.93273437 -2.87109375 8.57421875 C-3.24363281 9.04472656 -3.61617188 9.51523437 -4 10 C-4.66 9.67 -5.32 9.34 -6 9 C-4.02 6.03 -2.04 3.06 0 0 Z " fill="#595959" transform="translate(333,258)"/>
<path d="M0 0 C0.53625 0.226875 1.0725 0.45375 1.625 0.6875 C-3.125 3.5625 -3.125 3.5625 -5.375 4.6875 C-6.365 4.0275 -7.355 3.3675 -8.375 2.6875 C-2.95961538 -0.38942308 -2.95961538 -0.38942308 0 0 Z " fill="#575757" transform="translate(181.375,174.3125)"/>
<path d="M0 0 C1.98 1.65 3.96 3.3 6 5 C5.67 5.66 5.34 6.32 5 7 C2.5 5.75 2.5 5.75 0 4 C0 2.68 0 1.36 0 0 Z " fill="#6C6C6C" transform="translate(424,95)"/>
<path d="M0 0 C0.66 0.66 1.32 1.32 2 2 C-1.71888239 1.49287967 -4.73454239 0.88391785 -8 -1 C-4.59407832 -2.2164006 -3.04320125 -1.92736079 0 0 Z " fill="#5E5C5D" transform="translate(213,419)"/>
</svg>
