<svg id="svg" version="1.1" xmlns="http://www.w3.org/2000/svg" xmlns:xlink="http://www.w3.org/1999/xlink" width="400" height="400" viewBox="0, 0, 400,400"><g id="svgg"><path id="path0" d="M214.185 130.900 C 214.080 131.175,214.041 160.110,214.097 195.200 L 214.200 259.000 226.700 259.106 L 239.200 259.211 239.200 225.429 C 239.200 206.849,239.354 191.552,239.543 191.435 C 239.950 191.183,241.643 192.954,250.407 202.800 C 254.030 206.870,257.085 210.290,257.197 210.400 C 257.309 210.510,258.930 212.310,260.800 214.400 C 262.670 216.490,264.296 218.290,264.413 218.400 C 264.530 218.510,267.584 221.930,271.200 226.000 C 274.816 230.070,277.870 233.490,277.987 233.600 C 278.104 233.710,279.730 235.510,281.600 237.600 C 283.470 239.690,285.090 241.490,285.200 241.600 C 285.310 241.710,286.750 243.330,288.400 245.200 C 290.050 247.070,291.490 248.690,291.600 248.800 C 291.710 248.910,293.330 250.710,295.200 252.799 C 298.826 256.851,301.759 260.076,302.900 261.269 C 303.643 262.045,308.450 262.337,309.501 261.670 C 309.900 261.416,309.982 248.252,309.901 197.176 L 309.800 133.000 297.400 133.000 L 285.000 133.000 284.898 168.300 C 284.839 188.629,284.644 203.600,284.439 203.600 C 284.243 203.600,282.939 202.295,281.542 200.700 C 280.144 199.105,278.910 197.710,278.798 197.600 C 278.686 197.490,277.607 196.230,276.400 194.800 C 275.193 193.370,274.113 192.110,274.000 192.000 C 273.887 191.890,272.807 190.630,271.600 189.200 C 270.393 187.770,269.309 186.510,269.192 186.400 C 269.075 186.290,267.994 185.030,266.790 183.600 C 265.585 182.170,264.499 180.910,264.376 180.800 C 264.253 180.690,258.684 174.210,252.000 166.400 C 245.316 158.590,239.747 152.110,239.624 152.000 C 239.501 151.890,238.415 150.630,237.210 149.200 C 236.006 147.770,234.925 146.510,234.808 146.400 C 234.691 146.290,233.607 145.030,232.400 143.600 C 231.193 142.170,230.113 140.910,230.000 140.800 C 229.887 140.690,228.806 139.431,227.598 138.001 C 226.389 136.572,224.830 134.772,224.133 134.001 C 223.435 133.231,222.477 132.105,222.003 131.500 C 221.032 130.259,214.616 129.767,214.185 130.900 M89.785 133.300 C 89.680 133.575,89.641 161.970,89.697 196.400 L 89.800 259.000 112.000 259.000 C 127.485 259.000,135.289 258.850,137.800 258.503 C 141.382 258.009,148.675 256.325,150.200 255.640 C 150.640 255.442,151.630 255.055,152.400 254.780 C 167.802 249.267,180.807 235.565,186.739 218.600 C 189.843 209.722,191.351 195.686,190.029 187.967 C 189.825 186.775,189.450 184.540,189.195 183.000 C 184.745 156.112,163.915 136.688,136.000 133.397 C 129.270 132.603,90.081 132.521,89.785 133.300 M135.495 158.978 C 173.965 167.070,173.628 225.508,135.067 233.205 C 133.783 233.461,128.833 233.700,124.067 233.735 L 115.400 233.800 115.298 196.100 L 115.196 158.400 123.972 158.400 C 130.088 158.400,133.580 158.575,135.495 158.978 " stroke="none" fill="#fbfbfc" fill-rule="evenodd"></path><path id="path1" d="M0.000 200.000 L 0.000 400.000 200.000 400.000 L 400.000 400.000 400.000 200.000 L 400.000 0.000 200.000 0.000 L 0.000 0.000 0.000 200.000 M222.003 131.500 C 222.477 132.105,223.435 133.231,224.133 134.001 C 224.830 134.772,226.389 136.572,227.598 138.001 C 228.806 139.431,229.887 140.690,230.000 140.800 C 230.113 140.910,231.193 142.170,232.400 143.600 C 233.607 145.030,234.691 146.290,234.808 146.400 C 234.925 146.510,236.006 147.770,237.210 149.200 C 238.415 150.630,239.501 151.890,239.624 152.000 C 239.747 152.110,245.316 158.590,252.000 166.400 C 258.684 174.210,264.253 180.690,264.376 180.800 C 264.499 180.910,265.585 182.170,266.790 183.600 C 267.994 185.030,269.075 186.290,269.192 186.400 C 269.309 186.510,270.393 187.770,271.600 189.200 C 272.807 190.630,273.887 191.890,274.000 192.000 C 274.113 192.110,275.193 193.370,276.400 194.800 C 277.607 196.230,278.686 197.490,278.798 197.600 C 278.910 197.710,280.144 199.105,281.542 200.700 C 282.939 202.295,284.243 203.600,284.439 203.600 C 284.644 203.600,284.839 188.629,284.898 168.300 L 285.000 133.000 297.400 133.000 L 309.800 133.000 309.901 197.176 C 309.982 248.252,309.900 261.416,309.501 261.670 C 308.450 262.337,303.643 262.045,302.900 261.269 C 301.759 260.076,298.826 256.851,295.200 252.799 C 293.330 250.710,291.710 248.910,291.600 248.800 C 291.490 248.690,290.050 247.070,288.400 245.200 C 286.750 243.330,285.310 241.710,285.200 241.600 C 285.090 241.490,283.470 239.690,281.600 237.600 C 279.730 235.510,278.104 233.710,277.987 233.600 C 277.870 233.490,274.816 230.070,271.200 226.000 C 267.584 221.930,264.530 218.510,264.413 218.400 C 264.296 218.290,262.670 216.490,260.800 214.400 C 258.930 212.310,257.309 210.510,257.197 210.400 C 257.085 210.290,254.030 206.870,250.407 202.800 C 241.643 192.954,239.950 191.183,239.543 191.435 C 239.354 191.552,239.200 206.849,239.200 225.429 L 239.200 259.211 226.700 259.106 L 214.200 259.000 214.097 195.200 C 214.041 160.110,214.080 131.175,214.185 130.900 C 214.616 129.767,221.032 130.259,222.003 131.500 M136.000 133.397 C 163.915 136.688,184.745 156.112,189.195 183.000 C 189.450 184.540,189.825 186.775,190.029 187.967 C 190.856 192.795,190.433 202.975,189.131 209.600 C 184.984 230.693,170.738 248.216,152.400 254.780 C 151.630 255.055,150.640 255.442,150.200 255.640 C 148.675 256.325,141.382 258.009,137.800 258.503 C 135.289 258.850,127.485 259.000,112.000 259.000 L 89.800 259.000 89.697 196.400 C 89.641 161.970,89.680 133.575,89.785 133.300 C 90.081 132.521,129.270 132.603,136.000 133.397 M115.298 196.100 L 115.400 233.800 124.067 233.735 C 133.273 233.667,136.627 233.241,141.000 231.586 C 172.200 219.783,171.659 170.901,140.209 160.224 C 135.793 158.724,132.905 158.400,123.972 158.400 L 115.196 158.400 115.298 196.100 " stroke="none" fill="#046cfc" fill-rule="evenodd"></path></g></svg>