<?xml version="1.0" encoding="UTF-8"?>
<svg version="1.1" xmlns="http://www.w3.org/2000/svg" width="2400" height="2643">
<path d="M0 0 C6.58216938 3.89743503 13.22544092 7.6386342 19.96142578 11.26318359 C27.68148763 15.42238253 35.28178253 19.74828311 42.83642578 24.20068359 C51.84467651 29.50634426 60.95797546 34.56629568 70.16967773 39.5090332 C79.30869058 44.42176614 88.30691682 49.56080023 97.29882812 54.73632812 C101.96585672 57.41261612 106.65128393 60.05627267 111.33642578 62.70068359 C112.29444092 63.24152588 113.25245605 63.78236816 114.23950195 64.33959961 C116.18060396 65.43532783 118.12176617 66.53094942 120.06298828 67.62646484 C122.92598164 69.24316864 125.78768077 70.86213786 128.64892578 72.48193359 C138.61391365 78.12213728 148.59116499 83.73928496 158.58642578 89.32568359 C167.0904678 94.07924847 175.56542325 98.87978782 184.01538086 103.72875977 C190.74068202 107.58186973 197.503543 111.3649725 204.27392578 115.13818359 C212.62334871 119.79309769 220.90829444 124.54342784 229.14892578 129.38818359 C237.57178371 134.33877808 246.07724182 139.0923357 254.67749023 143.72680664 C261.48251391 147.41146612 268.16992044 151.27171559 274.83642578 155.20068359 C283.84467651 160.50634426 292.95797546 165.56629568 302.16967773 170.5090332 C311.30869058 175.42176614 320.30691682 180.56080023 329.29882812 185.73632812 C333.96585672 188.41261612 338.65128393 191.05627267 343.33642578 193.70068359 C344.29444092 194.24152588 345.25245605 194.78236816 346.23950195 195.33959961 C348.18060396 196.43532783 350.12176617 197.53094942 352.06298828 198.62646484 C354.92598164 200.24316864 357.78768077 201.86213786 360.64892578 203.48193359 C370.61391365 209.12213728 380.59116499 214.73928496 390.58642578 220.32568359 C399.08817431 225.07796646 407.56024188 229.87823193 416.00878906 234.72436523 C422.80175828 238.61497756 429.62701364 242.44591437 436.46142578 246.26318359 C445.0076217 251.03654668 453.52469507 255.85633229 462.01489258 260.72851562 C468.74039127 264.58164605 475.50338407 268.36488393 482.27392578 272.13818359 C490.62334871 276.79309769 498.90829444 281.54342784 507.14892578 286.38818359 C515.57037521 291.33795023 524.07451772 296.09049685 532.6730957 300.72460938 C540.55399657 304.99222484 548.27788802 309.50603669 556.00048828 314.05224609 C563.47687841 318.43762222 571.04703363 322.61510302 578.67675781 326.72631836 C585.48194221 330.41129345 592.1696668 334.2715661 598.83642578 338.20068359 C607.84467651 343.50634426 616.95797546 348.56629568 626.16967773 353.5090332 C635.30869058 358.42176614 644.30691682 363.56080023 653.29882812 368.73632812 C657.96585703 371.4126163 662.65130551 374.0562339 667.33642578 376.70068359 C668.29299072 377.24080078 669.24955566 377.78091797 670.23510742 378.33740234 C672.17472204 379.43243807 674.11441951 380.52732706 676.05419922 381.62207031 C680.85779556 384.33367383 685.65952184 387.04858456 690.46142578 389.76318359 C692.37808335 390.84653302 694.29475002 391.92986635 696.21142578 393.01318359 C707.71142579 399.5131836 707.71142579 399.5131836 710.5859375 401.13793945 C712.5041954 402.22215094 714.42248972 403.30629799 716.34082031 404.39038086 C721.10844057 407.08475353 725.87543955 409.78021307 730.64111328 412.47802734 C740.60896837 418.11906327 750.5886283 423.73786719 760.58642578 429.32568359 C769.08817431 434.07796646 777.56024188 438.87823193 786.00878906 443.72436523 C792.80175828 447.61497756 799.62701364 451.44591437 806.46142578 455.26318359 C815.00532736 460.03526521 823.51951037 464.85478426 832.00830078 469.72412109 C838.80146798 473.61475321 845.62685477 477.44582564 852.46142578 481.26318359 C861.0076217 486.03654668 869.52469507 490.85633229 878.01489258 495.72851562 C884.74039127 499.58164605 891.50338407 503.36488393 898.27392578 507.13818359 C906.6233465 511.79309646 914.90834677 516.54334103 923.14892578 521.38818359 C930.72356561 525.841206 938.35240588 530.1557504 946.08642578 534.32568359 C971.35499344 548.00439549 996.28390375 562.93728275 1015.96142578 584.26318359 C1016.49509766 584.83810547 1017.02876953 585.41302734 1017.57861328 586.00537109 C1047.72764392 619.48885674 1070.22325233 666.000404 1070.08907628 711.74461442 C1070.09072706 712.55361286 1070.09237784 713.36261129 1070.09407864 714.19612483 C1070.09838295 716.89942071 1070.09560884 719.60266154 1070.09285355 722.30595875 C1070.09450416 724.2750492 1070.09659088 726.24413933 1070.09907365 728.21322891 C1070.10463753 733.63866347 1070.10396839 739.06408223 1070.10229606 744.48951873 C1070.10156503 750.38672051 1070.10658775 756.28391783 1070.11087108 762.18111771 C1070.11757025 772.52185967 1070.12054866 782.86259859 1070.12100601 793.20334244 C1070.12150856 804.29881257 1070.12415713 815.39427906 1070.1294136 826.489748 C1070.12974374 827.19064847 1070.13007387 827.89154894 1070.13041401 828.61368881 C1070.13176402 831.46838703 1070.13312669 834.32308523 1070.13450611 837.17778343 C1070.15080516 870.96857317 1070.15719436 904.7593622 1070.16195398 938.5501552 C1070.16433767 955.37818545 1070.16804124 972.2062153 1070.17199108 989.03424524 C1070.18465553 1043.02084089 1070.19543921 1097.00743652 1070.19883154 1150.99403362 C1070.19899378 1153.57410719 1070.19915934 1156.15418075 1070.19932592 1158.73425432 C1070.19965972 1163.9085799 1070.1999902 1169.08290548 1070.20032048 1174.25723106 C1070.20070738 1180.31503032 1070.20109699 1186.37282958 1070.20149155 1192.43062884 C1070.20160397 1194.16441616 1070.20171538 1195.89820347 1070.2018258 1197.63199079 C1070.20537475 1253.30770936 1070.22045119 1308.98341501 1070.24376354 1364.65912865 C1070.26050894 1404.66751061 1070.27598181 1444.67589012 1070.2804985 1484.68427563 C1070.28063873 1485.91889681 1070.28063873 1485.91889681 1070.2807818 1487.17845984 C1070.28280101 1505.24870715 1070.28395692 1523.31895442 1070.28431038 1541.38920183 C1070.28444655 1547.85545361 1070.28465554 1554.32170539 1070.28490363 1560.78795717 C1070.28496519 1562.39657055 1070.28502351 1564.00518393 1070.28507858 1565.61379731 C1070.28599777 1591.22875042 1070.29595844 1616.84369004 1070.31053607 1642.45863871 C1070.32516441 1668.26600128 1070.33018625 1694.07334731 1070.32211653 1719.88071329 C1070.32100123 1723.450878 1070.31999055 1727.02104274 1070.31904221 1730.5912075 C1070.31885224 1731.29102468 1070.31866227 1731.99084186 1070.31846655 1732.71186561 C1070.31573824 1743.77040838 1070.32305768 1754.82892046 1070.33461557 1765.88745656 C1070.34578387 1776.77484814 1070.34591071 1787.66219464 1070.33524539 1798.54958689 C1070.32985365 1804.36798646 1070.3291425 1810.18627988 1070.34175411 1816.00467066 C1070.35315206 1821.30750241 1070.35050424 1826.61014236 1070.33708704 1831.91296769 C1070.33466988 1833.81010386 1070.33717678 1835.7072551 1070.34548351 1837.60437463 C1070.41369764 1854.29285133 1068.64333046 1870.61425487 1064.27392578 1886.76318359 C1064.01828857 1887.71692871 1063.76265137 1888.67067383 1063.49926758 1889.65332031 C1057.42163994 1911.51104163 1047.39152158 1932.93995212 1033.96142578 1951.26318359 C1033.19314453 1952.31505859 1032.42486328 1953.36693359 1031.63330078 1954.45068359 C1025.89281888 1962.16898819 1019.61048761 1969.31678847 1012.96142578 1976.26318359 C1012.4409668 1976.81619141 1011.92050781 1977.36919922 1011.38427734 1977.93896484 C992.84158453 1997.578924 970.82176712 2010.56873765 947.34155273 2023.50048828 C939.75099036 2027.68612159 932.24055537 2031.98573327 924.77392578 2036.38818359 C915.86972142 2041.63101088 906.85648893 2046.62429731 897.75195312 2051.50976562 C888.61040803 2056.42362642 879.60965566 2061.56400462 870.61523438 2066.74072266 C865.99188487 2069.39308765 861.35211935 2072.01631613 856.71142578 2074.63818359 C855.76146729 2075.17499756 854.81150879 2075.71181152 853.83276367 2076.26489258 C845.62056684 2080.90039904 837.3891355 2085.50128872 829.15771484 2090.10253906 C822.57224017 2093.78831685 816.00802983 2097.50884522 809.46142578 2101.26318359 C800.80720766 2106.22619387 792.11174296 2111.11255763 783.40332031 2115.97973633 C776.37109909 2119.91096961 769.34874979 2123.85906803 762.33642578 2127.82568359 C761.39412109 2128.35871094 760.45181641 2128.89173828 759.48095703 2129.44091797 C756.64089259 2131.04795032 753.80110352 2132.65546804 750.96142578 2134.26318359 C747.17012801 2136.40966955 743.37849052 2138.55555286 739.58642578 2140.70068359 C738.6419458 2141.23516113 737.69746582 2141.76963867 736.72436523 2142.3203125 C731.75782083 2145.12794676 726.78478345 2147.92326996 721.80126953 2150.70068359 C711.39922501 2156.4992494 701.04119519 2162.35360473 690.77392578 2168.38818359 C682.32408391 2173.35196739 673.79766603 2178.13661762 665.17724609 2182.79711914 C655.66066026 2187.94696036 646.25203878 2193.28203634 636.84375 2198.62646484 C632.09441326 2201.32336079 627.34068785 2204.01248228 622.58642578 2206.70068359 C621.64436279 2207.2335498 620.7022998 2207.76641602 619.73168945 2208.31542969 C612.61142061 2212.33948328 605.47571734 2216.3354997 598.33642578 2220.32568359 C590.68930737 2224.60024779 583.06114556 2228.90490572 575.46142578 2233.26318359 C566.80720766 2238.22619387 558.11174296 2243.11255763 549.40332031 2247.97973633 C542.37109909 2251.91096961 535.34874979 2255.85906803 528.33642578 2259.82568359 C527.39412109 2260.35871094 526.45181641 2260.89173828 525.48095703 2261.44091797 C522.64089259 2263.04795032 519.80110352 2264.65546804 516.96142578 2266.26318359 C505.1014601 2272.9778368 493.23324422 2279.67649538 481.33642578 2286.32568359 C473.68930737 2290.60024779 466.06114556 2294.90490572 458.46142578 2299.26318359 C449.80720766 2304.22619387 441.11174296 2309.11255763 432.40332031 2313.97973633 C425.37109909 2317.91096961 418.34874979 2321.85906803 411.33642578 2325.82568359 C410.39412109 2326.35871094 409.45181641 2326.89173828 408.48095703 2327.44091797 C405.64089259 2329.04795032 402.80110352 2330.65546804 399.96142578 2332.26318359 C388.1014601 2338.9778368 376.23324422 2345.67649538 364.33642578 2352.32568359 C356.68930737 2356.60024779 349.06114556 2360.90490572 341.46142578 2365.26318359 C332.80720766 2370.22619387 324.11174296 2375.11255763 315.40332031 2379.97973633 C308.37109909 2383.91096961 301.34874979 2387.85906803 294.33642578 2391.82568359 C293.39412109 2392.35871094 292.45181641 2392.89173828 291.48095703 2393.44091797 C288.64089259 2395.04795032 285.80110352 2396.65546804 282.96142578 2398.26318359 C271.1014601 2404.9778368 259.23324422 2411.67649538 247.33642578 2418.32568359 C239.68930737 2422.60024779 232.06114556 2426.90490572 224.46142578 2431.26318359 C215.80720766 2436.22619387 207.11174296 2441.11255763 198.40332031 2445.97973633 C191.37109909 2449.91096961 184.34874979 2453.85906803 177.33642578 2457.82568359 C176.39412109 2458.35871094 175.45181641 2458.89173828 174.48095703 2459.44091797 C171.64089259 2461.04795032 168.80110352 2462.65546804 165.96142578 2464.26318359 C154.1014601 2470.9778368 142.23324422 2477.67649538 130.33642578 2484.32568359 C122.68930737 2488.60024779 115.06114556 2492.90490572 107.46142578 2497.26318359 C98.80720766 2502.22619387 90.11174296 2507.11255763 81.40332031 2511.97973633 C71.5185916 2517.50561119 61.65912586 2523.07549245 51.80419922 2528.65429688 C46.06487734 2531.90250464 40.32295511 2535.14611387 34.58154297 2538.390625 C29.81410352 2541.08494818 25.04725385 2543.78030261 20.28173828 2546.47802734 C15.51053245 2549.17864037 10.73687023 2551.87487171 5.96191406 2554.56884766 C3.89957633 2555.73342242 1.83809951 2556.89952269 -0.22265625 2558.06689453 C-35.18081879 2577.86481659 -71.1349411 2595.10722443 -112.19091797 2595.50146484 C-113.46468796 2595.5162236 -113.46468796 2595.5162236 -114.76419067 2595.53128052 C-133.85075943 2595.70674571 -152.34151069 2595.56885552 -171.03857422 2591.26318359 C-172.57989014 2590.90909424 -172.57989014 2590.90909424 -174.15234375 2590.54785156 C-196.89455642 2585.11703218 -217.97251553 2576.17714057 -238.03857422 2564.26318359 C-239.73373121 2563.26552347 -241.42905038 2562.2681389 -243.12451172 2561.27099609 C-246.80332901 2559.10246193 -250.47653055 2556.92468374 -254.14794922 2554.74365234 C-263.62112555 2549.12950531 -273.17875746 2543.66053563 -282.72412109 2538.17041016 C-288.16507979 2535.0395344 -293.60165411 2531.90106554 -299.03857422 2528.76318359 C-305.5608742 2524.99948769 -312.08371189 2521.23673735 -318.60888672 2517.47802734 C-330.09306242 2510.86095468 -341.56054315 2504.21684383 -353.00439453 2497.53027344 C-363.56477704 2491.36399306 -374.15984188 2485.2582241 -384.75634766 2479.15429688 C-390.18517364 2476.02638211 -395.61176703 2472.89459912 -401.03857422 2469.76318359 C-403.20523005 2468.5131648 -405.37189672 2467.26316481 -407.53857422 2466.01318359 C-411.87190755 2463.51318359 -416.20524089 2461.01318359 -420.53857422 2458.51318359 C-422.14756592 2457.58493774 -422.14756592 2457.58493774 -423.7890625 2456.63793945 C-425.95414493 2455.38882841 -428.11918404 2454.1396423 -430.28417969 2452.89038086 C-435.72473128 2449.7511605 -441.16604638 2446.61327797 -446.60888672 2443.47802734 C-458.09306242 2436.86095468 -469.56054315 2430.21684383 -481.00439453 2423.53027344 C-491.55740609 2417.36829701 -502.14518462 2411.2670052 -512.734375 2405.16748047 C-516.06471674 2403.24811697 -519.3936657 2401.32636006 -522.72216797 2399.40380859 C-523.82028809 2398.76975098 -524.9184082 2398.13569336 -526.04980469 2397.48242188 C-528.23806782 2396.2185308 -530.42589867 2394.95389097 -532.61328125 2393.68847656 C-537.67484241 2390.76393347 -542.74468904 2387.85801361 -547.84716797 2385.00537109 C-560.86693444 2377.71480776 -573.15470595 2370.39082928 -583.85107422 2359.88818359 C-584.36162354 2359.38802734 -584.87217285 2358.88787109 -585.39819336 2358.37255859 C-587.29639085 2356.42670073 -588.87141269 2354.60640499 -590.06591797 2352.15380859 C-590.02468559 2349.30288443 -588.79587059 2348.35596626 -586.78857422 2346.38818359 C-580.06495367 2340.12826101 -572.3350292 2336.6320165 -563.79638672 2333.46240234 C-563.10425079 2333.20415176 -562.41211487 2332.94590118 -561.69900513 2332.67982483 C-555.82338278 2330.5095599 -549.89713619 2328.50919042 -543.95178223 2326.53973389 C-503.16778081 2313.02902003 -464.61677254 2294.53785875 -427.15576172 2273.54052734 C-411.53417842 2264.83449249 -411.53417842 2264.83449249 -402.06933594 2266.91625977 C-394.31008552 2269.25217857 -387.7350956 2272.33425346 -380.85107422 2276.57568359 C-378.75398549 2277.83314097 -376.65630838 2279.08961749 -374.55810547 2280.34521484 C-373.48641113 2280.99184082 -372.4147168 2281.6384668 -371.31054688 2282.3046875 C-365.92672405 2285.52726821 -360.48108883 2288.64112411 -355.03857422 2291.76318359 C-345.69661256 2297.14180466 -336.37710261 2302.55758238 -327.07104492 2307.99804688 C-319.80652233 2312.24148454 -312.51935429 2316.44441077 -305.22607422 2320.63818359 C-296.32956102 2325.75597023 -287.48210583 2330.94975942 -278.66357422 2336.20068359 C-268.27679383 2342.38311189 -257.81841033 2348.42384377 -247.31298828 2354.40136719 C-239.82053541 2358.66567837 -232.35468299 2362.97237349 -224.91357422 2367.32568359 C-204.16276378 2379.46226894 -183.31497764 2391.43028434 -162.42626953 2403.32763672 C-159.08047124 2405.23924589 -155.7424652 2407.16387749 -152.40576172 2409.09130859 C-150.34595092 2410.27374841 -148.28605923 2411.45604731 -146.22607422 2412.63818359 C-145.29577393 2413.17975098 -144.36547363 2413.72131836 -143.40698242 2414.27929688 C-134.21884673 2419.52941717 -126.83698692 2421.71889688 -116.28857422 2418.88818359 C-101.50206844 2414.06062577 -88.03227358 2405.19364542 -74.62451172 2397.46630859 C-68.62445758 2394.01387103 -62.5832723 2390.63666732 -56.53857422 2387.26318359 C-47.99219994 2382.49014369 -39.47530123 2377.67003277 -30.98510742 2372.79785156 C-24.25960873 2368.94472113 -17.49661593 2365.16148326 -10.72607422 2361.38818359 C-2.37664598 2356.73326654 5.90817158 2351.98273603 14.14892578 2347.13818359 C22.59871373 2342.17431126 31.1251889 2337.38974775 39.74560547 2332.72924805 C49.25933069 2327.58095483 58.66494778 2322.24728034 68.0703125 2316.90429688 C72.86337535 2314.18355979 77.66269798 2311.47391221 82.46142578 2308.76318359 C84.37812276 2307.6799039 86.29478943 2306.59657055 88.21142578 2305.51318359 C99.71142578 2299.01318359 111.21142578 2292.51318359 122.71142578 2286.01318359 C123.66001465 2285.47701416 124.60860352 2284.94084473 125.5859375 2284.38842773 C127.5041954 2283.30421625 129.42248972 2282.2200692 131.34082031 2281.13598633 C136.10844057 2278.44161366 140.87543955 2275.74615411 145.64111328 2273.04833984 C156.61851669 2266.8358533 167.61227554 2260.65361246 178.62060547 2254.49609375 C189.42019304 2248.45254932 200.19206504 2242.36037852 210.96142578 2236.26318359 C222.82139146 2229.54853039 234.68960734 2222.84987181 246.58642578 2216.20068359 C254.23354419 2211.9261194 261.86170601 2207.62146147 269.46142578 2203.26318359 C278.11706138 2198.29936042 286.81377355 2193.41187161 295.52392578 2188.54443359 C302.51433144 2184.63702011 309.49268311 2180.7090929 316.46142578 2176.76318359 C324.48934569 2172.21753663 332.53306381 2167.70109175 340.58642578 2163.20068359 C348.23357335 2158.92617236 355.86170663 2154.62146111 363.46142578 2150.26318359 C372.1156439 2145.30017332 380.8111086 2140.41380955 389.51953125 2135.54663086 C396.55175248 2131.61539758 403.57410177 2127.66729916 410.58642578 2123.70068359 C411.52873047 2123.16765625 412.47103516 2122.63462891 413.44189453 2122.08544922 C416.28195897 2120.47841687 419.12174804 2118.87089914 421.96142578 2117.26318359 C433.82139146 2110.54853039 445.68960734 2103.84987181 457.58642578 2097.20068359 C465.23354419 2092.9261194 472.86170601 2088.62146147 480.46142578 2084.26318359 C489.11706138 2079.29936042 497.81377355 2074.41187161 506.52392578 2069.54443359 C513.51433144 2065.63702011 520.49268311 2061.7090929 527.46142578 2057.76318359 C535.48934569 2053.21753663 543.53306381 2048.70109175 551.58642578 2044.20068359 C559.23357335 2039.92617236 566.86170663 2035.62146111 574.46142578 2031.26318359 C583.1156439 2026.30017332 591.8111086 2021.41380955 600.51953125 2016.54663086 C610.40425996 2011.020756 620.2637257 2005.45087474 630.11865234 1999.87207031 C635.85797423 1996.62386255 641.59989645 1993.38025332 647.34130859 1990.13574219 C652.10874804 1987.44141901 656.87559771 1984.74606458 661.64111328 1982.04833984 C671.60896837 1976.40730391 681.5886283 1970.7885 691.58642578 1965.20068359 C700.08817431 1960.44840072 708.56024188 1955.64813525 717.00878906 1950.80200195 C724.86299435 1946.30357617 732.76246035 1941.8877277 740.66455078 1937.47412109 C748.14103877 1933.29391722 755.58559252 1929.06122846 763.01489258 1924.79785156 C769.74039127 1920.94472113 776.50338407 1917.16148326 783.27392578 1913.38818359 C791.62335402 1908.73326654 799.90817158 1903.98273603 808.14892578 1899.13818359 C816.59308084 1894.17762033 825.11433323 1889.39717772 833.72802734 1884.73803711 C843.34961195 1879.52937928 852.88438646 1874.1733998 862.37890625 1868.73681641 C864.74473852 1867.3868293 867.1195849 1866.05430379 869.49658203 1864.72412109 C879.39838979 1859.10561323 886.29210497 1853.76958793 890.13626903 1842.72041006 C891.88062956 1835.41192064 891.50582948 1827.90361456 891.46479034 1820.43051815 C891.46896648 1818.5089347 891.47489414 1816.58735441 891.48240781 1814.66578111 C891.49798395 1809.381561 891.48866441 1804.09763323 891.475296 1798.81341788 C891.4651527 1793.06605362 891.47818746 1787.31873429 891.48826933 1781.57137638 C891.50272388 1771.49711335 891.50227303 1761.42293605 891.49208069 1751.34866905 C891.48117606 1740.54106759 891.47875964 1729.73351906 891.48703003 1718.92591476 C891.48780507 1717.90133303 891.48780507 1717.90133303 891.48859576 1716.85605267 C891.49072888 1714.07400196 891.49292372 1711.2919513 891.49519686 1708.5099007 C891.51634656 1682.60698289 891.51779242 1656.70409876 891.50660706 1630.80117607 C891.50611028 1629.6502058 891.50611028 1629.6502058 891.50560347 1628.4759836 C891.50527176 1627.70744187 891.50494004 1626.93890014 891.50459827 1626.14706926 C891.4945067 1602.73567193 891.49189943 1579.32428852 891.49668884 1555.91288948 C891.49699876 1554.34532649 891.49730739 1552.77776351 891.49761472 1551.21020052 C891.49885658 1544.91086945 891.50013125 1538.61153839 891.50145378 1532.31220733 C891.50512184 1514.70292779 891.50740422 1497.0936482 891.50859833 1479.48436832 C891.5086802 1478.28153361 891.5086802 1478.28153361 891.50876373 1477.0543992 C891.51040089 1451.50196702 891.50589302 1425.94953969 891.49720001 1400.39710903 C891.49691902 1399.56831256 891.49663802 1398.73951609 891.49634851 1397.88560457 C891.49176868 1384.4263658 891.48689085 1370.96712713 891.48198781 1357.50788847 C891.46256145 1304.12397927 891.46346484 1250.7401102 891.48291016 1197.35620117 C891.48779488 1183.90257236 891.49263907 1170.44894353 891.49720001 1156.9953146 C891.4974818 1156.16693625 891.4977636 1155.3385579 891.49805393 1154.48507718 C891.50667795 1128.95845272 891.51033591 1103.4318316 891.50859833 1077.90520573 C891.50854399 1077.10391777 891.50848965 1076.30262981 891.50843367 1075.47706039 C891.50718379 1057.88798014 891.50464929 1040.29890025 891.50095632 1022.70982035 C891.49963974 1016.41642637 891.49838742 1010.12303238 891.49715347 1003.82963838 C891.49684392 1002.26399415 891.496529 1000.69834993 891.49620869 999.1327057 C891.49143332 975.72657765 891.495502 952.32046527 891.50560347 928.91433916 C891.50593466 928.14694285 891.50626584 927.37954654 891.50660706 926.5888958 C891.50693779 925.82291402 891.50726851 925.05693224 891.50760927 924.26773889 C891.51863863 898.44088261 891.51459085 872.61406674 891.49348408 846.78721624 C891.49127464 844.01449466 891.48912783 841.24177303 891.48703003 838.46905136 C891.48624879 837.44833494 891.48624879 837.44833494 891.48545176 836.40699798 C891.47707897 824.97202713 891.48450271 813.53711736 891.49606878 802.10215071 C891.50501655 792.16114431 891.49949559 782.22021486 891.4820497 772.27921989 C891.4725063 766.60971701 891.46933957 760.94040466 891.48367363 755.27090757 C891.49657698 750.11487488 891.49113155 744.95920207 891.47095099 739.8031957 C891.46691698 737.9480159 891.46960096 736.09280644 891.47977474 734.23765015 C891.54101141 722.22008653 890.74207963 711.92519562 882.96020508 702.17993164 C880.5162885 699.83631504 877.94333413 698.21913849 875.04345703 696.47021484 C874.47186859 696.12480148 873.90028015 695.77938812 873.31137085 695.42350769 C867.31850243 691.82773529 861.21274022 688.4377738 855.08642578 685.07568359 C852.70533283 683.76217884 850.32556984 682.44627256 847.94580078 681.13037109 C847.35394989 680.80344772 846.762099 680.47652435 846.15231323 680.13969421 C839.58329067 676.50811631 833.0533851 672.80843412 826.52416992 669.10595703 C821.63039227 666.33271766 816.73037616 663.57170226 811.81689453 660.83349609 C801.44960004 655.05550679 791.12823892 649.22013812 780.89892578 643.20068359 C771.95069246 637.93887034 762.89467791 632.9222728 753.74804688 628.01464844 C746.41689969 624.07429152 739.17368841 620.00147786 731.96020508 615.8503418 C725.19599067 611.95972595 718.39868668 608.13150368 711.58642578 604.32568359 C698.74182133 597.14720787 685.93206503 589.90817336 673.12744141 582.65869141 C670.28069407 581.04723257 667.43363783 579.4363212 664.58642578 577.82568359 C663.6419458 577.29120605 662.69746582 576.75672852 661.72436523 576.20605469 C656.75782083 573.39842043 651.78478345 570.60309723 646.80126953 567.82568359 C636.43962719 562.04954691 626.12321069 556.21717925 615.89892578 550.20068359 C606.95069246 544.93887034 597.89467791 539.9222728 588.74804688 535.01464844 C581.41689969 531.07429152 574.17368841 527.00147786 566.96020508 522.8503418 C560.19599128 518.9597263 553.3987125 515.13145668 546.58642578 511.32568359 C537.58621273 506.29645692 528.60200834 501.24016403 519.63037109 496.16015625 C512.544942 492.15107133 505.44305899 488.17203745 498.33642578 484.20068359 C489.8332138 479.4476597 481.36009477 474.64594497 472.90966797 469.79980469 C465.10201567 465.32879381 457.25290511 460.93342204 449.39892578 456.54443359 C442.40851976 452.63701991 435.43020274 448.70903273 428.46142578 444.76318359 C420.4736844 440.24110682 412.47261443 435.74358829 404.46142578 431.26318359 C391.66005733 424.10284468 378.89152498 416.88522115 366.12744141 409.65869141 C363.28069404 408.04723255 360.43366947 406.43626535 357.58642578 404.82568359 C356.64412109 404.29265625 355.70181641 403.75962891 354.73095703 403.21044922 C347.61086432 399.18667905 340.475462 395.19072477 333.33642578 391.20068359 C324.83324628 386.44760084 316.36009542 381.64594534 307.90966797 376.79980469 C300.10201567 372.32879381 292.25290511 367.93342204 284.39892578 363.54443359 C276.45958021 359.10659301 268.53772243 354.63871806 260.6237793 350.15576172 C255.69379714 347.36538085 250.75741894 344.58730944 245.80908203 341.82958984 C235.44461339 336.05252725 225.12572479 330.21865867 214.89892578 324.20068359 C205.95069246 318.93887034 196.89467791 313.9222728 187.74804688 309.01464844 C180.41689969 305.07429152 173.17368841 301.00147786 165.96020508 296.8503418 C159.19599067 292.95972595 152.39868668 289.13150368 145.58642578 285.32568359 C132.74182133 278.14720787 119.93206503 270.90817336 107.12744141 263.65869141 C104.28069407 262.04723257 101.43363783 260.4363212 98.58642578 258.82568359 C97.16970581 258.02396729 97.16970581 258.02396729 95.72436523 257.20605469 C90.75782083 254.39842043 85.78478345 251.60309723 80.80126953 248.82568359 C70.43962719 243.04954691 60.12321069 237.21717925 49.89892578 231.20068359 C40.95069246 225.93887034 31.89467791 220.9222728 22.74804688 216.01464844 C15.41689969 212.07429152 8.17368841 208.00147786 0.96020508 203.8503418 C-5.80400933 199.95972595 -12.60131332 196.13150368 -19.41357422 192.32568359 C-32.25817867 185.14720787 -45.06793497 177.90817336 -57.87255859 170.65869141 C-63.58646827 167.42421742 -69.30209639 164.19281781 -75.02050781 160.96630859 C-77.10976841 159.78731798 -79.19860777 158.60758069 -81.28710938 157.42724609 C-84.59837717 155.5569885 -87.91196139 153.69089425 -91.22607422 151.82568359 C-92.22880371 151.25857666 -93.2315332 150.69146973 -94.26464844 150.10717773 C-108.35965986 141.54554505 -108.35965986 141.54554505 -124.10107422 137.95068359 C-124.95830078 137.91330078 -125.81552734 137.87591797 -126.69873047 137.83740234 C-135.46518541 138.95499718 -143.1749684 143.17248079 -150.66357422 147.63818359 C-152.50141189 148.71100509 -154.33998571 149.78256625 -156.17919922 150.85302734 C-157.61102539 151.69003174 -157.61102539 151.69003174 -159.07177734 152.54394531 C-164.15273854 155.4883272 -169.28440899 158.3413808 -174.41357422 161.20068359 C-182.50780081 165.72323326 -190.59325482 170.26059868 -198.66357422 174.82568359 C-199.60587891 175.35871094 -200.54818359 175.89173828 -201.51904297 176.44091797 C-204.35910741 178.04795032 -207.19889648 179.65546804 -210.03857422 181.26318359 C-221.8985399 187.9778368 -233.76675578 194.67649538 -245.66357422 201.32568359 C-253.31069263 205.60024779 -260.93885444 209.90490572 -268.53857422 214.26318359 C-277.19420981 219.22700676 -285.89092199 224.11449558 -294.60107422 228.98193359 C-301.59147988 232.88934708 -308.56983155 236.81727428 -315.53857422 240.76318359 C-323.56649413 245.30883055 -331.61021225 249.82527543 -339.66357422 254.32568359 C-347.31072179 258.60019483 -354.93885507 262.90490608 -362.53857422 267.26318359 C-371.19279234 272.22619387 -379.88825704 277.11255763 -388.59667969 281.97973633 C-395.62890091 285.91096961 -402.65125021 289.85906803 -409.66357422 293.82568359 C-410.60587891 294.35871094 -411.54818359 294.89173828 -412.51904297 295.44091797 C-415.35910741 297.04795032 -418.19889648 298.65546804 -421.03857422 300.26318359 C-424.82987199 302.40966955 -428.62150948 304.55555286 -432.41357422 306.70068359 C-433.3580542 307.23516113 -434.30253418 307.76963867 -435.27563477 308.3203125 C-440.24217917 311.12794676 -445.21521655 313.92326996 -450.19873047 316.70068359 C-460.56037281 322.47682028 -470.87678931 328.30918794 -481.10107422 334.32568359 C-490.04930754 339.58749685 -499.10532209 344.60409438 -508.25195312 349.51171875 C-515.58165268 353.45129759 -522.82373734 357.52280505 -530.03540039 361.67382812 C-536.84113133 365.5889977 -543.68293769 369.43613731 -550.53857422 373.26318359 C-558.22792447 377.55770828 -565.89884017 381.88098997 -573.53857422 386.26318359 C-582.19415673 391.22709804 -590.89092319 396.11449626 -599.60107422 400.98193359 C-606.59147988 404.88934708 -613.56983155 408.81727428 -620.53857422 412.76318359 C-628.56649413 417.30883055 -636.61021225 421.82527543 -644.66357422 426.32568359 C-652.31072179 430.60019483 -659.93885507 434.90490608 -667.53857422 439.26318359 C-676.19420981 444.22700676 -684.89092199 449.11449558 -693.60107422 453.98193359 C-700.59147988 457.88934708 -707.56983155 461.81727428 -714.53857422 465.76318359 C-722.56649413 470.30883055 -730.61021225 474.82527543 -738.66357422 479.32568359 C-746.31072179 483.60019483 -753.93885507 487.90490608 -761.53857422 492.26318359 C-770.19420981 497.22700676 -778.89092199 502.11449558 -787.60107422 506.98193359 C-794.59147988 510.88934708 -801.56983155 514.81727428 -808.53857422 518.76318359 C-816.56649413 523.30883055 -824.61021225 527.82527543 -832.66357422 532.32568359 C-840.31072179 536.60019483 -847.93885507 540.90490608 -855.53857422 545.26318359 C-864.19420981 550.22700676 -872.89092199 555.11449558 -881.60107422 559.98193359 C-889.54041979 564.41977418 -897.46227757 568.88764913 -905.3762207 573.37060547 C-910.30620286 576.16098633 -915.24258106 578.93905775 -920.19091797 581.69677734 C-930.55538661 587.47383993 -940.87427521 593.30770851 -951.10107422 599.32568359 C-960.04930754 604.58749685 -969.10532209 609.60409438 -978.25195312 614.51171875 C-985.5839649 618.45254037 -992.82877022 622.52461472 -1000.04199219 626.67822266 C-1006.78017844 630.55575062 -1013.559396 634.3552513 -1020.35107422 638.13818359 C-1028.66052999 642.76987194 -1036.90272044 647.5002825 -1045.10107422 652.32568359 C-1054.04413476 657.58458406 -1063.09447322 662.59936606 -1072.23657227 667.50292969 C-1079.73041805 671.52971211 -1087.13392085 675.69454297 -1094.50341797 679.9440918 C-1099.43764266 682.78723066 -1104.39780616 685.57101102 -1109.39575195 688.30053711 C-1127.74770731 698.23487208 -1127.74770731 698.23487208 -1139.03857422 715.26318359 C-1140.11621547 719.52129231 -1140.1796645 723.67570956 -1140.16737539 728.04016745 C-1140.1691504 728.82156109 -1140.1709254 729.60295473 -1140.1727542 730.40802696 C-1140.17750665 733.04134082 -1140.17511817 735.6746002 -1140.1727953 738.30791664 C-1140.17474782 740.21708423 -1140.17713651 742.12625142 -1140.17992327 744.03541797 C-1140.18633882 749.31306038 -1140.18648365 754.5906876 -1140.18564586 759.86833316 C-1140.18581505 765.59824042 -1140.19171772 771.32814217 -1140.19688672 777.0580467 C-1140.20622532 788.43666009 -1140.21013688 799.81526959 -1140.21240568 811.19388633 C-1140.21440635 820.65736214 -1140.21884144 830.12083455 -1140.22485542 839.58430862 C-1140.22528604 840.26526066 -1140.22571665 840.94621269 -1140.22616031 841.64779964 C-1140.22791865 844.42113266 -1140.22968829 847.19446568 -1140.23147333 849.96779868 C-1140.25307622 883.59658691 -1140.26395233 917.22537593 -1140.27294957 950.85416952 C-1140.27588318 961.75808946 -1140.27925302 972.66200921 -1140.28291678 983.56592894 C-1140.28317508 984.33507894 -1140.28343337 985.10422895 -1140.28369948 985.89668653 C-1140.2847457 989.00834917 -1140.28579412 992.12001181 -1140.28684531 995.23167444 C-1140.30480985 1048.45634653 -1140.32018945 1101.68101894 -1140.32760434 1154.90569363 C-1140.32818831 1159.08666819 -1140.32878558 1163.26764275 -1140.32938195 1167.4486173 C-1140.32950007 1168.27799416 -1140.32961819 1169.10737102 -1140.32973989 1169.96188051 C-1140.33093729 1178.36470655 -1140.33214605 1186.76753259 -1140.33337243 1195.17035863 C-1140.33361766 1196.85515656 -1140.33386152 1198.53995448 -1140.33410399 1200.2247524 C-1140.34189464 1254.34064641 -1140.36428018 1308.45651873 -1140.39678042 1362.57240326 C-1140.42012363 1401.45409264 -1140.44167659 1440.33577772 -1140.44878674 1479.21747398 C-1140.44900727 1480.41670799 -1140.44900727 1480.41670799 -1140.44923225 1481.64016895 C-1140.45241696 1499.19034536 -1140.45446793 1516.74052173 -1140.4554598 1534.29069839 C-1140.45587455 1541.35204657 -1140.45642944 1548.41339473 -1140.45702171 1555.47474289 C-1140.45708238 1556.24756753 -1140.45714305 1557.02039216 -1140.45720556 1557.81663573 C-1140.4592221 1582.71780745 -1140.47346454 1607.61895359 -1140.49396672 1632.52011639 C-1140.51454234 1657.59938888 -1140.52244452 1682.6786318 -1140.51288895 1707.75791189 C-1140.51157049 1711.22315862 -1140.51039244 1714.68840538 -1140.50929832 1718.15365219 C-1140.50896855 1719.17258152 -1140.50896855 1719.17258152 -1140.50863212 1720.21209528 C-1140.50532789 1731.6240088 -1140.51788146 1743.03585366 -1140.5346276 1754.44775394 C-1140.54809176 1764.37082978 -1140.5470976 1774.29383536 -1140.53422564 1784.21691184 C-1140.52729983 1789.87546792 -1140.52675882 1795.53382919 -1140.54378573 1801.19236822 C-1140.55914858 1806.3397003 -1140.55611196 1811.48668031 -1140.53837545 1816.63400175 C-1140.53522454 1818.48493065 -1140.53878351 1820.3358862 -1140.54986719 1822.18678459 C-1140.6145764 1833.74533887 -1140.26188526 1845.02713099 -1132.81689453 1854.60229492 C-1130.45935256 1856.80415627 -1127.90641437 1858.3527671 -1125.14794922 1860.02490234 C-1124.57389847 1860.37306 -1123.99984772 1860.72121765 -1123.40840149 1861.07992554 C-1117.43611757 1864.67515389 -1111.34080806 1868.04243721 -1105.22607422 1871.38818359 C-1096.32018038 1876.28806957 -1087.48561145 1881.29226549 -1078.72607422 1886.45068359 C-1070.34696239 1891.3818359 -1061.88459938 1896.11257124 -1053.32641602 1900.72485352 C-1045.44570025 1904.99242736 -1037.72195517 1909.50612899 -1029.99951172 1914.05224609 C-1022.52312159 1918.43762222 -1014.95296637 1922.61510302 -1007.32324219 1926.72631836 C-1000.51805779 1930.41129345 -993.8303332 1934.2715661 -987.16357422 1938.20068359 C-978.15391536 1943.50717361 -969.03927933 1948.56809744 -959.82592773 1953.51123047 C-952.49606858 1957.45112701 -945.25366528 1961.52265875 -938.04174805 1965.67382812 C-931.23601711 1969.5889977 -924.39421075 1973.43613731 -917.53857422 1977.26318359 C-909.84920941 1981.55771641 -902.17894672 1985.88208826 -894.53857422 1990.26318359 C-891.95276121 1991.74167476 -889.36642278 1993.21924106 -886.77978516 1994.69628906 C-884.87575347 1995.78464633 -882.97283731 1996.87495656 -881.07080078 1997.96679688 C-829.74617919 2027.37981554 -771.24979656 2050.31509095 -711.52587891 2034.41479492 C-695.05537423 2029.68607229 -679.07485497 2022.50821966 -666.03857422 2011.26318359 C-665.18392578 2010.54517578 -664.32927734 2009.82716797 -663.44873047 2009.08740234 C-640.09516776 1988.82845658 -625.02050503 1960.98167768 -621.03857422 1930.26318359 C-620.65752279 1924.76547708 -620.63068958 1919.29471318 -620.65660667 1913.78828716 C-620.65297301 1912.18516332 -620.64802809 1910.58204202 -620.64190876 1908.97892573 C-620.62894374 1904.60121577 -620.63440223 1900.2236993 -620.64303779 1895.84598596 C-620.64911714 1891.07030176 -620.63771049 1886.29465286 -620.62857211 1881.51897794 C-620.61494495 1873.15395253 -620.61234395 1864.78898074 -620.61704063 1856.42394638 C-620.62397167 1843.97683571 -620.61367756 1831.52978042 -620.59987722 1819.08267758 C-620.5770829 1798.10043251 -620.56807487 1777.11820276 -620.56675339 1756.13594627 C-620.56536437 1735.25787721 -620.55730994 1714.37982699 -620.54069901 1693.5017643 C-620.5391465 1691.54671672 -620.5391465 1691.54671672 -620.53756263 1689.55217324 C-620.53226275 1682.9286106 -620.52683641 1676.30504807 -620.52135547 1669.68148557 C-620.51025077 1656.20372317 -620.50011231 1642.72596004 -620.49035072 1629.2481966 C-620.48986118 1628.5736009 -620.48937164 1627.8990052 -620.48886727 1627.20396721 C-620.46562913 1595.08195063 -620.45245278 1562.95993133 -620.44071933 1530.83790878 C-620.43630374 1518.74966622 -620.43185312 1506.66142367 -620.42730713 1494.57318115 C-620.42691031 1493.51606817 -620.42691031 1493.51606817 -620.42650547 1492.43759938 C-620.41429356 1459.98476172 -620.39693183 1427.53192763 -620.37770639 1395.07909344 C-620.37646519 1392.98325215 -620.37522771 1390.88741087 -620.37399086 1388.79156958 C-620.3556088 1357.67340198 -620.33587966 1326.55523539 -620.31461219 1295.43706963 C-620.31321254 1293.3883735 -620.31181544 1291.33967737 -620.31041917 1289.29098124 C-620.30763615 1285.20785541 -620.30484911 1281.12472957 -620.30205953 1277.04160374 C-620.30160058 1276.36976495 -620.30114164 1275.69792616 -620.30066878 1275.00572862 C-620.29559322 1267.57949518 -620.29047998 1260.15326177 -620.28528757 1252.72702841 C-620.26519274 1223.95996436 -620.24744476 1195.19290247 -620.23780441 1166.42583275 C-620.21695082 1104.88170293 -620.17373458 1043.33771393 -620.0563533 981.79368351 C-620.04427764 975.42935549 -620.0330699 969.0650267 -620.02261364 962.70069581 C-619.98466684 939.64106948 -619.93437529 916.58159079 -619.83873541 893.52212271 C-619.83113968 891.6837144 -619.82356084 889.84530602 -619.81599927 888.00689757 C-619.8122959 887.10721923 -619.80859254 886.20754089 -619.80477695 885.28059957 C-619.78017888 879.06405509 -619.76559805 872.847539 -619.75575709 866.6309551 C-619.7440074 859.26393365 -619.71893558 851.89711983 -619.67529683 844.53021506 C-619.65375998 840.83804274 -619.63834577 837.14613299 -619.64025763 833.45389189 C-619.64209999 829.49070558 -619.61321639 825.52808725 -619.58112526 821.56502247 C-619.58648675 820.4223727 -619.59184824 819.27972292 -619.5973722 818.1024474 C-619.49135201 809.86822025 -617.88223719 803.48852302 -611.78857422 797.51318359 C-605.30220918 791.41655723 -598.30889813 789.14492721 -589.49336243 789.12947083 C-587.83872734 789.12307335 -587.83872734 789.12307335 -586.15066528 789.11654663 C-584.95005463 789.11699982 -583.74944397 789.117453 -582.51245117 789.11791992 C-580.60424339 789.112882 -580.60424339 789.112882 -578.65748596 789.10774231 C-575.17374581 789.09892274 -571.69003023 789.09656499 -568.20627999 789.09592652 C-566.02603352 789.09521458 -563.84579325 789.09307746 -561.66554832 789.09042931 C-554.0484312 789.08118089 -546.43133154 789.07709357 -538.81420898 789.07788086 C-531.73255156 789.07848071 -524.65097053 789.06794576 -517.56933242 789.0521372 C-511.47570385 789.03902276 -505.38210013 789.03369863 -499.28845757 789.03433627 C-495.65524781 789.03459022 -492.0221059 789.03179661 -488.38891029 789.02115822 C-484.32977789 789.00959716 -480.27081436 789.01424786 -476.21166992 789.02026367 C-475.02118042 789.01464417 -473.83069092 789.00902466 -472.60412598 789.00323486 C-461.8103566 789.04376009 -452.33116558 789.79509463 -444.03857422 797.26318359 C-438.14699269 804.3154193 -435.72789881 811.04976329 -435.78672522 820.24279439 C-435.78233193 821.42955497 -435.78233193 821.42955497 -435.77784987 822.6402905 C-435.77045218 825.30099782 -435.777331 827.96147657 -435.78409863 830.62218285 C-435.78170953 832.55344846 -435.77844484 834.48471316 -435.77438203 836.41597599 C-435.76572717 841.75047296 -435.76960293 847.08489996 -435.77543775 852.41939808 C-435.77959436 858.21296793 -435.77221383 864.00652468 -435.76628524 869.80009139 C-435.75692524 880.63246425 -435.75665387 891.46481523 -435.76050081 902.29719081 C-435.76403922 912.53669081 -435.76286206 922.77617922 -435.75747871 933.01567841 C-435.75711989 933.7043081 -435.75676106 934.39293779 -435.75639136 935.10243505 C-435.75491646 937.90710854 -435.75341207 940.71178201 -435.7518699 943.51645546 C-435.73622287 972.00690641 -435.73355749 1000.4973484 -435.73602596 1028.98780287 C-435.73636441 1032.92697787 -435.73668651 1036.86615288 -435.73699164 1040.80532789 C-435.73705269 1041.58776733 -435.73711373 1042.37020676 -435.73717662 1043.17635648 C-435.73844838 1060.51451803 -435.73584727 1077.85267835 -435.73246558 1095.19083954 C-435.73169482 1099.14972626 -435.73095009 1103.10861298 -435.73020056 1107.0674997 C-435.72989887 1108.65640577 -435.72959699 1110.24531183 -435.72929492 1111.83421789 C-435.72914524 1112.62181855 -435.72899556 1113.40941921 -435.72884134 1114.22088656 C-435.72853781 1115.81399737 -435.72823313 1117.40710818 -435.7279273 1119.00021899 C-435.71925095 1164.22138011 -435.71461234 1209.44254015 -435.71887493 1254.66370201 C-435.71895299 1255.50142377 -435.71903105 1256.33914554 -435.71911147 1257.20225281 C-435.71998426 1266.54364568 -435.72091352 1275.88503855 -435.7218621 1285.22643141 C-435.72194761 1286.0698109 -435.72203312 1286.91319038 -435.72212122 1287.78212682 C-435.72283196 1294.78932815 -435.72283196 1294.78932815 -435.72316345 1298.01420919 C-435.72869343 1351.90335975 -435.72117513 1405.79249317 -435.70239258 1459.68164062 C-435.69767008 1473.24780461 -435.69298943 1486.8139686 -435.68855572 1500.38013268 C-435.6882824 1501.21553734 -435.68800907 1502.050942 -435.68772747 1502.91166195 C-435.67934902 1528.6817321 -435.6746758 1554.45180083 -435.67384815 1580.22187233 C-435.67382179 1581.03162525 -435.67379542 1581.84137817 -435.67376825 1582.67566906 C-435.67322732 1600.456846 -435.67360026 1618.23802282 -435.67480797 1636.01919972 C-435.67523357 1642.38288992 -435.6755987 1648.74658011 -435.67593741 1655.11027031 C-435.67602271 1656.69332646 -435.67611165 1658.27638261 -435.67620423 1659.85943876 C-435.67765022 1685.0358223 -435.67054434 1710.21219414 -435.65920027 1735.38857487 C-435.64751988 1761.48064411 -435.6470193 1787.57269259 -435.65904369 1813.66476195 C-435.66029539 1816.474595 -435.66149889 1819.28442808 -435.66266441 1822.09426117 C-435.66295471 1822.78379848 -435.663245 1823.47333578 -435.66354409 1824.18376816 C-435.6681085 1835.70334556 -435.66089551 1847.22288668 -435.65045518 1858.74245947 C-435.6421793 1868.79894793 -435.64494883 1878.85539555 -435.65643044 1888.91188072 C-435.6626562 1894.62936578 -435.6643679 1900.34674429 -435.65256711 1906.06422298 C-435.58797299 1939.70019977 -436.85472762 1972.25425093 -444.03857422 2005.26318359 C-444.25884277 2006.27783691 -444.47911133 2007.29249023 -444.70605469 2008.33789062 C-452.79935573 2044.72541915 -467.19722105 2080.8693303 -489.03857422 2111.26318359 C-489.77720703 2112.29572266 -490.51583984 2113.32826172 -491.27685547 2114.39208984 C-506.1542845 2134.66027469 -523.40489115 2152.80818267 -544.03857422 2167.26318359 C-544.60930664 2167.66794922 -545.18003906 2168.07271484 -545.76806641 2168.48974609 C-592.08915588 2200.97251367 -651.12613421 2215.24449864 -706.85107422 2218.51318359 C-707.55305939 2218.55447388 -708.25504456 2218.59576416 -708.978302 2218.63830566 C-792.94359481 2223.41227272 -875.10350101 2200.40650347 -948.78076172 2161.04833984 C-952.78736249 2158.91310905 -956.81792143 2156.8287279 -960.85888672 2154.75927734 C-973.38030594 2148.34583938 -985.78835007 2141.82214125 -997.99853516 2134.82641602 C-1003.78604142 2131.51540268 -1009.61975385 2128.33284754 -1015.53857422 2125.26318359 C-1025.54178177 2120.06583268 -1035.32859974 2114.50517475 -1045.12109375 2108.92333984 C-1048.88090457 2106.7838659 -1052.6489356 2104.65914111 -1056.41723633 2102.53466797 C-1071.26110187 2094.16378577 -1086.04962838 2085.69612347 -1100.8404541 2077.23205566 C-1122.40587238 2064.8916248 -1144.00911953 2052.6222603 -1165.69677734 2040.49755859 C-1173.66904534 2036.03824151 -1181.61811493 2031.53898369 -1189.5612793 2027.02807617 C-1195.29360451 2023.7831485 -1201.06213262 2020.61555249 -1206.86230469 2017.49365234 C-1224.71146398 2007.876714 -1240.88852856 1996.69790506 -1255.55908203 1982.67529297 C-1256.54022262 1981.73883799 -1257.52652669 1980.80776129 -1258.51806641 1979.88232422 C-1267.47740716 1971.50767347 -1274.88719533 1962.20853619 -1282.03857422 1952.26318359 C-1282.50569824 1951.61414062 -1282.97282227 1950.96509766 -1283.45410156 1950.29638672 C-1290.00685574 1941.0840272 -1295.2855266 1931.50858629 -1300.03857422 1921.26318359 C-1300.3439209 1920.61768555 -1300.64926758 1919.9721875 -1300.96386719 1919.30712891 C-1307.40095761 1905.63561493 -1312.07428028 1891.46552972 -1315.28857422 1876.70068359 C-1315.43963623 1876.01901123 -1315.59069824 1875.33733887 -1315.74633789 1874.63500977 C-1318.7997055 1859.64027104 -1319.33227565 1844.55611904 -1319.29304981 1829.31155968 C-1319.29544513 1827.35365454 -1319.29871382 1825.39575032 -1319.30276641 1823.43784791 C-1319.31133498 1818.08538492 -1319.30758148 1812.73299263 -1319.30171069 1807.38052866 C-1319.29752305 1801.54674203 -1319.30495213 1795.71296791 -1319.3108632 1789.87918437 C-1319.32018523 1778.99390571 -1319.32050677 1768.10864888 -1319.31664762 1757.22336755 C-1319.31309979 1746.93845456 -1319.31430012 1736.65355309 -1319.31966972 1726.3686409 C-1319.32002855 1725.67520341 -1319.32038737 1724.98176593 -1319.32075707 1724.26731518 C-1319.32223208 1721.44276457 -1319.32373649 1718.61821398 -1319.32527854 1715.79366341 C-1319.34089296 1687.15884282 -1319.34359473 1658.52403117 -1319.34112248 1629.88920709 C-1319.34078401 1625.93589971 -1319.34046192 1621.98259233 -1319.34015679 1618.02928495 C-1319.34009575 1617.24400083 -1319.34003471 1616.4587167 -1319.33997181 1615.64963608 C-1319.33869863 1598.22826881 -1319.34130365 1580.80690277 -1319.34468286 1563.38553586 C-1319.34545361 1559.40475951 -1319.34619835 1555.42398315 -1319.34694787 1551.44320679 C-1319.34724957 1549.84549156 -1319.34755145 1548.24777633 -1319.34785352 1546.65006109 C-1319.3480032 1545.85808745 -1319.34815288 1545.0661138 -1319.34830709 1544.25014095 C-1319.34861063 1542.64816007 -1319.34891531 1541.0461792 -1319.34922114 1539.44419832 C-1319.35789165 1494.00135963 -1319.36253991 1448.55852202 -1319.35827351 1403.1156826 C-1319.35819545 1402.27460642 -1319.35811739 1401.43353023 -1319.35803697 1400.56696689 C-1319.35716421 1391.18859479 -1319.35623495 1381.81022269 -1319.35528634 1372.4318506 C-1319.35520083 1371.58516149 -1319.35511532 1370.73847238 -1319.35502722 1369.86612602 C-1319.35431652 1362.83188082 -1319.35431652 1362.83188082 -1319.35398499 1359.59392683 C-1319.34844999 1305.44444711 -1319.35599017 1251.29498445 -1319.37475586 1197.14550781 C-1319.3794783 1183.50178722 -1319.38415891 1169.85806662 -1319.38859272 1156.21434593 C-1319.38886604 1155.37418108 -1319.38913936 1154.53401622 -1319.38942097 1153.66839183 C-1319.39779593 1127.76235491 -1319.40247227 1101.85631941 -1319.40330029 1075.95028114 C-1319.40332665 1075.13660977 -1319.40335302 1074.3229384 -1319.40338018 1073.48461032 C-1319.40392104 1055.62022839 -1319.40354835 1037.75584657 -1319.40234047 1019.89146467 C-1319.40191487 1013.49887451 -1319.40154974 1007.10628435 -1319.40121103 1000.71369419 C-1319.40112573 999.12346469 -1319.40103679 997.53323518 -1319.40094421 995.94300568 C-1319.39949728 970.6363574 -1319.40660977 945.32972074 -1319.41794817 920.02307525 C-1319.42961388 893.81618234 -1319.43014475 867.60931012 -1319.41810475 841.40241711 C-1319.416853 838.58365564 -1319.4156495 835.76489416 -1319.41448402 832.94613266 C-1319.41419373 832.25439184 -1319.41390344 831.56265102 -1319.41360434 830.84994836 C-1319.40955485 820.59656735 -1319.41382569 810.34321313 -1319.42310715 800.08983612 C-1319.43338961 788.66754609 -1319.43374332 777.24531297 -1319.42071799 765.82302466 C-1319.41447012 760.07753305 -1319.41283872 754.33214774 -1319.42458133 748.58666234 C-1319.50925591 704.19155924 -1319.50925591 704.19155924 -1316.03857422 685.26318359 C-1315.81267508 684.01323715 -1315.58677595 682.7632907 -1315.35403138 681.47546709 C-1314.81905841 678.72514288 -1314.18893124 676.03479809 -1313.47607422 673.32568359 C-1313.22559326 672.35663086 -1312.9751123 671.38757813 -1312.71704102 670.38916016 C-1305.62787486 644.29299139 -1293.2315437 620.78294318 -1277.03857422 599.26318359 C-1276.02150391 597.87873047 -1276.02150391 597.87873047 -1274.98388672 596.46630859 C-1259.00906921 575.80811085 -1238.72294997 558.98384633 -1216.03857422 546.26318359 C-1215.13075195 545.75174805 -1214.22292969 545.2403125 -1213.28759766 544.71337891 C-1207.99019088 541.73175957 -1202.68477424 538.76480653 -1197.37451172 535.80615234 C-1191.74048114 532.66301891 -1186.13369762 529.47494936 -1180.53857422 526.26318359 C-1172.96456316 521.91644176 -1165.3540946 517.63936584 -1157.72607422 513.38818359 C-1149.37664598 508.73326654 -1141.09182842 503.98273603 -1132.85107422 499.13818359 C-1124.40128627 494.17431126 -1115.8748111 489.38974775 -1107.25439453 484.72924805 C-1097.74066931 479.58095483 -1088.33505222 474.24728034 -1078.9296875 468.90429688 C-1074.13662475 466.18355986 -1069.3373246 463.47387206 -1064.53857422 460.76318359 C-1058.81102033 457.52665183 -1053.08395761 454.28926208 -1047.35888672 451.04833984 C-1037.39103163 445.40730391 -1027.4113717 439.7885 -1017.41357422 434.20068359 C-1008.91182569 429.44840072 -1000.43975812 424.64813525 -991.99121094 419.80200195 C-984.13700565 415.30357617 -976.23753965 410.8877277 -968.33544922 406.47412109 C-960.85896123 402.29391722 -953.41440748 398.06122846 -945.98510742 393.79785156 C-939.25960932 389.94472147 -932.49664103 386.16143744 -925.72607422 382.38818359 C-917.41673618 377.7562783 -909.17443325 373.02608778 -900.97607422 368.20068359 C-892.02930732 362.93960363 -882.97456952 357.92407017 -873.82958984 353.0168457 C-864.6907141 348.10447585 -855.69282694 342.96541947 -846.70117188 337.79003906 C-842.03414328 335.11375107 -837.34871607 332.47009452 -832.66357422 329.82568359 C-831.70555908 329.28484131 -830.74754395 328.74399902 -829.76049805 328.18676758 C-827.81939604 327.09103936 -825.87823383 325.99541777 -823.93701172 324.89990234 C-821.07401836 323.28319855 -818.21231923 321.66422933 -815.35107422 320.04443359 C-805.38608635 314.4042299 -795.40883501 308.78708223 -785.41357422 303.20068359 C-776.9095322 298.44711872 -768.43457675 293.64657937 -759.98461914 288.79760742 C-753.25931798 284.94449746 -746.496457 281.16139469 -739.72607422 277.38818359 C-731.37664598 272.73326654 -723.09182842 267.98273603 -714.85107422 263.13818359 C-706.40128627 258.17431126 -697.8748111 253.38974775 -689.25439453 248.72924805 C-679.74066931 243.58095483 -670.33505222 238.24728034 -660.9296875 232.90429688 C-656.13662465 230.18355979 -651.33730202 227.47391221 -646.53857422 224.76318359 C-644.62187724 223.6799039 -642.70521057 222.59657055 -640.78857422 221.51318359 C-636.95524089 219.34651693 -633.12190755 217.17985026 -629.28857422 215.01318359 C-628.33998535 214.47701416 -627.39139648 213.94084473 -626.4140625 213.38842773 C-624.4958046 212.30421625 -622.57751028 211.2200692 -620.65917969 210.13598633 C-615.89155943 207.44161366 -611.12456045 204.74615411 -606.35888672 202.04833984 C-596.39103163 196.40730391 -586.4113717 190.7885 -576.41357422 185.20068359 C-567.9095322 180.44711872 -559.43457675 175.64657937 -550.98461914 170.79760742 C-544.25931798 166.94449746 -537.496457 163.16139469 -530.72607422 159.38818359 C-522.37664598 154.73326654 -514.09182842 149.98273603 -505.85107422 145.13818359 C-497.40128627 140.17431126 -488.8748111 135.38974775 -480.25439453 130.72924805 C-470.74066931 125.58095483 -461.33505222 120.24728034 -451.9296875 114.90429688 C-447.13662465 112.18355979 -442.33730202 109.47391221 -437.53857422 106.76318359 C-435.62187724 105.6799039 -433.70521057 104.59657055 -431.78857422 103.51318359 C-427.95524089 101.34651693 -424.12190755 99.17985026 -420.28857422 97.01318359 C-419.33998535 96.47701416 -418.39139648 95.94084473 -417.4140625 95.38842773 C-415.4958046 94.30421625 -413.57751028 93.2200692 -411.65917969 92.13598633 C-406.89155943 89.44161366 -402.12456045 86.74615411 -397.35888672 84.04833984 C-387.39103163 78.40730391 -377.4113717 72.7885 -367.41357422 67.20068359 C-358.9095322 62.44711872 -350.43457675 57.64657937 -341.98461914 52.79760742 C-335.25931798 48.94449746 -328.496457 45.16139469 -321.72607422 41.38818359 C-313.37664598 36.73326654 -305.09182842 31.98273603 -296.85107422 27.13818359 C-288.40499327 22.17648895 -279.88290831 17.39270418 -271.26538086 12.73583984 C-264.56358803 9.11044774 -257.91631969 5.39711315 -251.28857422 1.63818359 C-250.32443604 1.09315186 -249.36029785 0.54812012 -248.36694336 -0.01342773 C-244.00941 -2.47805899 -239.65908454 -4.95317098 -235.32763672 -7.46337891 C-159.98367357 -50.783476 -73.22345056 -43.35986105 0 0 Z " fill="#8CC84A" transform="translate(1324.03857421875,41.73681640625)"/>
<path d="M0 0 C2.55425638 -0.00150415 5.10848816 -0.00639346 7.6627388 -0.01184845 C84.12194932 -0.13446694 161.01311665 7.79205974 303.47911453 58.31096649 C304.36566727 58.7323288 305.25222 59.1536911 306.16563797 59.58782196 C327.52381563 69.78892099 347.27118039 82.16043658 365.47911453 97.31096649 C365.98877762 97.7303952 366.4984407 98.14982391 367.02354813 98.58196259 C380.43257733 109.64866506 392.75724307 121.5982572 403.47911453 135.31096649 C404.40606101 136.43952551 405.33592793 137.56569 406.26817703 138.68987274 C451.44275132 193.47244461 477.99877511 268.12826608 478.79161453 339.06096649 C478.82061844 339.94139618 478.84962234 340.82182587 478.87950516 341.72893524 C478.94879601 348.90320347 477.26237499 353.93216122 472.69005203 359.48284149 C472.08419266 360.00362274 471.47833328 360.52440399 470.85411453 361.06096649 C470.26372391 361.59206024 469.67333328 362.12315399 469.06505203 362.67034149 C459.64695744 368.64556767 450.47995824 368.92794287 439.67442703 368.95549774 C438.01265631 368.97371527 436.35090207 368.99349323 434.68916702 369.0147171 C430.2461826 369.0658495 425.80341376 369.09155074 421.36018753 369.11030579 C418.5998857 369.12348669 415.83970303 369.1430252 413.07945633 369.16478729 C401.07503152 369.2590555 389.07106915 369.30249281 377.06628799 369.30921936 C374.57104022 369.31090441 372.07580028 369.3142977 369.58055496 369.3181076 C360.99241473 369.32892885 352.40568827 369.30394828 343.81792068 369.22072601 C341.27781575 369.19772594 338.73763344 369.18200916 336.19743729 369.17391205 C332.6967591 369.15860092 329.19806644 369.11091857 325.69786453 369.05315399 C324.69734055 369.05388412 323.69681656 369.05461426 322.66597366 369.05536652 C314.55702259 368.85839869 308.15939147 366.35747973 301.89317703 361.17034149 C301.30278641 360.47424774 300.71239578 359.77815399 300.10411453 359.06096649 C299.49825516 358.37518524 298.89239578 357.68940399 298.26817703 356.98284149 C293.53852465 349.91934317 291.54184333 342.26141426 289.66661453 334.06096649 C280.51535277 296.13277522 264.07243013 261.29567664 236.47911453 233.31096649 C235.58063797 232.3995993 234.68216141 231.48823212 233.75645828 230.54924774 C180.07540191 178.78800906 89.41093318 172.2528168 18.72130203 172.10784149 C17.28515738 172.10360043 17.28515738 172.10360043 15.81999969 172.09927368 C10.734689 172.08440765 5.64940567 172.0751038 0.56407547 172.07073212 C-3.53660297 172.06638775 -7.63706624 172.05263555 -11.73768234 172.02971649 C-65.81801986 171.73381006 -121.85579002 173.73418144 -173.52088547 191.31096649 C-174.21923508 191.54783173 -174.91758469 191.78469696 -175.63709641 192.02873993 C-195.82691988 198.99437235 -215.07470314 208.54131972 -231.52088547 222.31096649 C-232.47994797 223.0702243 -233.43901047 223.82948212 -234.42713547 224.61174774 C-252.57319879 239.79408666 -262.68712871 265.84866774 -265.30994797 288.82317352 C-267.36897352 313.10728277 -265.61521327 337.85933813 -249.78260422 357.46331024 C-236.75294192 371.55320202 -217.13782956 379.24992909 -199.27088547 385.12346649 C-198.50788132 385.37664642 -197.74487717 385.62982635 -196.95875168 385.89067841 C-177.46243025 392.31679553 -157.57118699 396.97824246 -137.52088547 401.31096649 C-136.69157516 401.49058929 -135.86226486 401.6702121 -135.00782394 401.85527802 C-71.74820128 415.5000007 -7.40408099 423.60797485 56.69645119 432.16305447 C146.0322416 444.08858991 235.81657442 456.39085079 453.47911453 557.31096649 C453.98088211 557.78405243 454.48264969 558.25713837 454.99962234 558.74456024 C462.98824922 566.32733405 469.99076676 574.41183277 476.47911453 583.31096649 C477.1089827 584.1743161 477.1089827 584.1743161 477.75157547 585.05510712 C508.99882011 628.52317109 519.00849259 684.77192117 518.79161453 737.37346649 C518.78888031 738.76720993 518.78888031 738.76720993 518.78609085 740.1891098 C518.58293608 802.11822906 501.38924009 864.61530967 463.47911453 914.31096649 C462.80493484 915.19655243 462.13075516 916.08213837 461.43614578 916.99456024 C457.15924202 922.46660677 452.56237479 927.60675193 447.85802078 932.71331024 C445.81536247 934.94379921 443.82474735 937.20463193 441.85411453 939.49846649 C382.72440758 1007.35222857 284.7189304 1039.74019828 95.00181961 1067.71623993 C91.49545311 1067.9420485 87.98824678 1068.13477722 84.47911453 1068.31096649 C83.64758865 1068.35333435 82.81606277 1068.39570221 81.95933914 1068.43935394 C63.88488369 1069.33158838 45.82162111 1069.51362499 27.72911453 1069.49846649 C27.01111679 1069.49819962 26.29311905 1069.49793274 25.5533638 1069.49765778 C-0.17961702 1069.48570488 -25.83700476 1069.0095008 -51.52088547 1067.31096649 C-52.51374557 1067.24544586 -53.50660568 1067.17992523 -54.52955246 1067.11241913 C-140.35603992 1061.36966444 -227.82577076 1048.29135555 -306.32557297 1011.33440399 C-308.43205903 1010.35237668 -310.55069727 1009.40511319 -312.67713547 1008.46721649 C-350.18331787 991.72274599 -384.34258841 966.52541173 -413.39588547 937.68596649 C-414.2637468 936.82745087 -415.13160812 935.96893524 -416.02576828 935.08440399 C-421.94341185 929.13729686 -427.33459093 922.90319198 -432.52088547 916.31096649 C-433.27571213 915.35311249 -433.27571213 915.35311249 -434.04578781 914.3759079 C-469.10384183 869.12487901 -489.10419004 813.91117423 -495.52088547 757.31096649 C-495.61369797 756.55517303 -495.70651047 755.79937958 -495.80213547 755.02068329 C-496.77350944 746.07154866 -496.81330359 737.07866427 -496.87098312 728.08611298 C-496.88760149 726.19243379 -496.91496813 724.2988188 -496.95301437 722.40544891 C-497.37665281 701.10748722 -497.37665281 701.10748722 -489.99818039 692.54363251 C-481.68168145 684.51252157 -471.53717248 683.72112468 -460.50916672 683.77751923 C-459.1249106 683.77044688 -457.74066221 683.76169638 -456.35642624 683.75141144 C-452.62493245 683.72905667 -448.89386557 683.73182385 -445.16233063 683.74073291 C-442.03619971 683.74587032 -438.91014708 683.73852819 -435.78402424 683.73126084 C-428.40489948 683.71430662 -421.02598176 683.71778295 -413.64686203 683.73455048 C-406.05652629 683.75147582 -398.4667655 683.73562181 -390.8764925 683.7033276 C-384.33686755 683.67656679 -377.79742087 683.66937288 -371.2577467 683.67784268 C-367.36181935 683.68275204 -363.46623785 683.68066491 -359.57035446 683.66005516 C-355.9059589 683.64159466 -352.24238578 683.64778106 -348.57803345 683.67225456 C-346.60718354 683.67958556 -344.6362891 683.66248865 -342.66550827 683.64443207 C-332.92575789 683.74764446 -325.95956804 686.05533233 -318.64588547 692.56096649 C-311.61224094 700.30165373 -310.33425934 710.22806557 -308.57145309 720.17546844 C-301.47529655 759.95261903 -288.28421204 798.12202402 -260.52088547 828.31096649 C-259.90729172 828.99545868 -259.29369797 829.67995087 -258.66151047 830.38518524 C-210.8225533 881.18447392 -124.35382643 891.19497053 -58.52088547 895.31096649 C-57.72198898 895.36349579 -56.9230925 895.41602509 -56.09998703 895.47014618 C-50.24342003 895.84741746 -44.38557736 896.09853737 -38.52088547 896.31096649 C-37.30191574 896.35608368 -36.08294601 896.40120087 -34.82703781 896.44768524 C118.39438478 903.13262467 118.39438478 903.13262467 283.47911453 839.31096649 C284.28220047 838.7089743 285.08528641 838.10698212 285.91270828 837.48674774 C288.93909375 834.92099933 291.36593012 832.05303374 293.79161453 828.93596649 C294.26945389 828.32237274 294.74729324 827.70877899 295.23961258 827.07659149 C316.81069619 798.76296425 324.19248035 762.40782915 319.65660477 727.4462204 C317.68780704 714.57989677 313.7030387 703.54072583 305.47911453 693.31096649 C304.84489578 692.50143524 304.21067703 691.69190399 303.55723953 690.85784149 C269.56161308 650.21645348 200.55295065 640.94047466 151.47911453 631.31096649 C150.70285721 631.15821259 149.92659988 631.00545868 149.12681961 630.84807587 C92.13164139 619.6756064 34.25050946 614.10331056 -23.43067551 607.77196503 C-89.33047332 600.53847198 -154.98014692 592.91807124 -219.52088547 577.31096649 C-220.20928513 577.14487885 -220.89768478 576.9787912 -221.60694504 576.80767059 C-243.32353383 571.54412914 -264.44376128 564.68125354 -285.52088547 557.31096649 C-286.58726242 556.93971649 -287.65363937 556.56846649 -288.75233078 556.18596649 C-336.47603094 539.37514125 -384.13021785 510.68644058 -415.52088547 470.31096649 C-416.64817062 468.87430634 -416.64817062 468.87430634 -417.79822922 467.40862274 C-423.2302601 460.34233983 -428.08263611 453.03797543 -432.52088547 445.31096649 C-432.88182297 444.68625458 -433.24276047 444.06154266 -433.61463547 443.41790009 C-449.07455462 416.34291146 -457.51362511 385.10887455 -461.52088547 354.31096649 C-461.60595352 353.66724091 -461.69102158 353.02351532 -461.77866745 352.3602829 C-463.50408368 338.95955657 -463.88296387 325.68677587 -463.83338547 312.18596649 C-463.83156265 311.15260162 -463.82973984 310.11923676 -463.82786179 309.0545578 C-463.78200458 293.59664684 -463.25557523 278.5590152 -460.52088547 263.31096649 C-460.35459641 262.31693817 -460.18830734 261.32290985 -460.01697922 260.29875946 C-451.7912436 211.6831387 -431.25369922 166.26013446 -398.52088547 129.31096649 C-398.04924973 128.77616669 -397.57761398 128.24136688 -397.09168625 127.69036102 C-386.25618074 115.47519074 -374.40527836 104.34920381 -361.52088547 94.31096649 C-360.65173508 93.63300018 -360.65173508 93.63300018 -359.76502609 92.94133759 C-326.56404054 67.18046926 -289.09956022 48.15587461 -249.52088547 34.31096649 C-248.39424484 33.9157077 -247.26760422 33.52044891 -246.10682297 33.11321259 C-210.62880682 20.83275659 -173.79941835 13.04252224 -136.70838547 7.56096649 C-136.02371201 7.4597348 -135.33903854 7.35850311 -134.6336174 7.2542038 C-129.9344983 6.56595974 -125.23054668 5.92274668 -120.52088547 5.31096649 C-119.85729019 5.22365265 -119.19369492 5.13633881 -118.50999069 5.04637909 C-104.04587371 3.18069969 -89.51827312 2.39753311 -74.95838547 1.68596649 C-74.29902245 1.65340885 -73.63965942 1.62085121 -72.9603157 1.58730698 C-48.64347373 0.39479358 -24.34439487 0.00894213 0 0 Z " fill="#8CC84A" transform="translate(1478.5208854675293,801.6890335083008)"/>
</svg>
