<svg id="svg" version="1.1" xmlns="http://www.w3.org/2000/svg" xmlns:xlink="http://www.w3.org/1999/xlink" width="400" height="400" viewBox="0, 0, 400,400"><g id="svgg"><path id="path0" d="M0.021 61.300 C 0.041 119.084,0.081 122.543,0.721 121.612 C 7.427 111.853,21.994 98.327,31.689 92.856 C 36.077 90.381,42.513 87.224,45.600 86.034 C 47.470 85.314,49.360 84.579,49.800 84.402 C 52.876 83.166,53.150 83.121,54.676 83.609 C 56.803 84.289,62.400 90.513,62.400 92.197 C 62.400 92.676,67.139 99.443,68.243 100.540 C 74.304 106.566,81.839 102.096,91.609 86.678 C 95.401 80.694,103.255 79.553,109.662 84.054 C 110.246 84.464,110.839 84.800,110.980 84.800 C 111.586 84.800,117.840 89.300,123.200 93.593 C 130.151 99.160,135.456 103.200,135.815 103.200 C 135.959 103.200,136.554 103.533,137.138 103.939 C 145.215 109.560,154.060 110.648,159.863 106.734 C 167.713 101.439,168.014 94.328,161.002 79.800 C 158.731 75.095,157.772 72.973,155.579 67.800 C 147.202 48.036,159.931 34.644,185.670 36.140 C 200.699 37.014,203.308 36.949,209.200 35.550 C 219.847 33.022,226.994 21.361,223.512 12.200 C 222.407 9.294,218.236 4.432,214.142 1.277 L 212.485 0.000 106.242 0.000 L 0.000 0.000 0.021 61.300 M69.400 113.585 C 65.507 115.356,62.127 120.099,59.727 127.158 C 58.046 132.101,59.440 138.260,63.065 141.905 C 72.349 151.242,88.537 142.017,85.203 129.289 C 82.064 117.305,75.518 110.801,69.400 113.585 M397.174 116.003 C 388.174 117.527,384.475 124.923,384.931 140.479 C 385.144 147.738,385.359 150.371,386.380 158.200 C 386.767 161.166,386.954 162.468,387.973 169.300 C 388.178 170.675,388.550 173.240,388.800 175.000 C 389.050 176.760,389.429 179.370,389.643 180.800 C 390.476 186.380,391.242 192.261,392.012 199.000 C 393.967 216.122,394.125 239.239,392.365 250.800 C 388.381 276.964,380.017 294.347,362.684 312.483 C 360.288 314.990,355.704 314.017,349.246 309.631 C 338.157 302.101,332.726 302.610,329.291 311.503 C 327.293 316.676,325.600 324.499,325.600 328.562 C 325.600 333.929,320.545 337.315,312.200 337.540 C 306.342 337.697,304.349 337.441,294.000 335.201 C 290.711 334.489,287.752 333.892,284.000 333.183 C 283.010 332.996,281.241 332.653,280.069 332.421 C 271.295 330.686,261.425 332.750,257.573 337.126 C 249.882 345.863,252.714 353.745,267.800 365.594 C 277.143 372.933,280.169 375.764,282.626 379.466 C 286.773 385.713,287.340 391.117,284.479 397.141 C 283.889 398.383,283.345 399.535,283.270 399.700 C 283.195 399.865,309.428 400.000,341.567 400.000 L 400.000 400.000 400.000 257.800 C 400.000 144.282,399.899 115.609,399.500 115.647 C 399.225 115.673,398.178 115.833,397.174 116.003 M177.284 124.805 C 172.299 127.845,174.537 140.320,182.414 153.400 C 183.076 154.500,183.735 155.670,183.878 156.000 C 186.113 161.165,195.413 171.326,201.800 175.581 C 223.243 189.867,234.579 174.215,219.459 151.200 C 208.783 134.948,185.030 120.083,177.284 124.805 M319.800 264.749 C 311.716 266.248,307.015 276.203,310.803 283.800 C 312.014 286.230,317.468 291.824,320.161 293.400 C 329.707 298.986,336.079 295.319,336.707 283.878 C 337.404 271.158,330.058 262.846,319.800 264.749 M178.600 296.452 C 170.772 297.434,166.400 301.147,166.400 306.814 C 166.400 315.611,180.824 328.321,195.000 332.018 C 195.660 332.190,197.190 332.589,198.400 332.906 C 199.610 333.222,201.680 333.704,203.000 333.976 C 204.320 334.249,206.300 334.669,207.400 334.910 C 216.178 336.831,229.075 335.008,231.779 331.463 C 237.260 324.277,214.500 303.590,195.400 298.396 C 194.740 298.216,193.210 297.804,192.000 297.479 C 190.049 296.955,182.598 295.919,181.732 296.051 C 181.549 296.078,180.140 296.259,178.600 296.452 " stroke="none" fill="#046cfc" fill-rule="evenodd"></path><path id="path1" d="M213.999 1.119 C 218.077 4.269,222.421 9.329,223.512 12.200 C 226.994 21.361,219.847 33.022,209.200 35.550 C 203.308 36.949,200.699 37.014,185.670 36.140 C 159.931 34.644,147.202 48.036,155.579 67.800 C 157.772 72.973,158.731 75.095,161.002 79.800 C 168.014 94.328,167.713 101.439,159.863 106.734 C 154.060 110.648,145.215 109.560,137.138 103.939 C 136.554 103.533,135.959 103.200,135.815 103.200 C 135.456 103.200,130.151 99.160,123.200 93.593 C 117.840 89.300,111.586 84.800,110.980 84.800 C 110.839 84.800,110.246 84.464,109.662 84.054 C 103.255 79.553,95.401 80.694,91.609 86.678 C 81.839 102.096,74.304 106.566,68.243 100.540 C 67.139 99.443,62.400 92.676,62.400 92.197 C 62.400 90.513,56.803 84.289,54.676 83.609 C 53.150 83.121,52.876 83.166,49.800 84.402 C 49.360 84.579,47.470 85.314,45.600 86.034 C 42.513 87.224,36.077 90.381,31.689 92.856 C 21.948 98.352,7.796 111.490,0.876 121.462 L 0.000 122.723 0.000 261.362 L 0.000 400.000 141.558 400.000 L 283.116 400.000 284.322 397.500 C 287.353 391.214,286.847 385.824,282.626 379.466 C 280.169 375.764,277.143 372.933,267.800 365.594 C 257.302 357.349,253.600 352.381,253.600 346.538 C 253.600 336.030,265.696 329.579,280.069 332.421 C 281.241 332.653,283.010 332.996,284.000 333.183 C 287.752 333.892,290.711 334.489,294.000 335.201 C 304.349 337.441,306.342 337.697,312.200 337.540 C 320.545 337.315,325.600 333.929,325.600 328.562 C 325.600 324.499,327.293 316.676,329.291 311.503 C 332.726 302.610,338.157 302.101,349.246 309.631 C 355.704 314.017,360.288 314.990,362.684 312.483 C 380.013 294.351,388.382 276.958,392.365 250.800 C 393.720 241.899,393.968 218.952,392.839 207.000 C 392.055 198.709,390.883 189.102,389.643 180.800 C 389.429 179.370,389.050 176.760,388.800 175.000 C 388.356 171.868,387.969 169.232,387.186 164.000 C 383.933 142.253,384.013 129.912,387.449 123.069 C 389.499 118.986,394.950 115.717,399.900 115.602 C 399.955 115.601,400.000 89.590,400.000 57.800 L 400.000 0.000 306.300 0.019 L 212.600 0.038 213.999 1.119 M75.005 113.428 C 80.199 115.598,86.027 126.709,85.528 133.489 C 84.545 146.830,66.068 150.266,60.192 138.200 C 59.143 136.044,58.874 129.667,59.727 127.158 C 63.352 116.496,69.381 111.078,75.005 113.428 M186.747 124.893 C 197.778 128.608,212.279 140.270,219.459 151.200 C 234.579 174.215,223.243 189.867,201.800 175.581 C 195.413 171.326,186.113 161.165,183.878 156.000 C 183.735 155.670,183.076 154.500,182.414 153.400 C 170.466 133.560,172.512 120.099,186.747 124.893 M328.265 265.667 C 336.448 269.488,339.671 284.461,334.117 292.853 C 328.460 301.403,310.136 290.414,309.667 278.192 C 309.281 268.125,319.211 261.439,328.265 265.667 M185.932 296.444 C 188.059 296.688,190.790 297.154,192.000 297.479 C 193.210 297.804,194.740 298.216,195.400 298.396 C 207.074 301.570,224.592 313.535,230.254 322.200 C 234.545 328.766,233.542 332.132,226.531 334.694 C 224.259 335.525,210.898 335.675,207.400 334.910 C 206.300 334.669,204.320 334.249,203.000 333.976 C 201.680 333.704,199.610 333.222,198.400 332.906 C 197.190 332.589,195.660 332.190,195.000 332.018 C 182.667 328.802,170.656 319.357,166.849 309.881 C 164.304 303.544,169.513 297.591,178.600 296.452 C 180.140 296.259,181.549 296.078,181.732 296.051 C 181.914 296.023,183.804 296.200,185.932 296.444 " stroke="none" fill="#fbfbfc" fill-rule="evenodd"></path></g></svg>